<svg version="1.1" xmlns="http://www.w3.org/2000/svg" viewBox="0 0 1316.4095610919483 888.3000259014558" width="1316.4095610919483" height="888.3000259014558">
  <!-- svg-source:excalidraw -->
  
  <defs>
    <style>
      @font-face {
        font-family: "Virgil";
        src: url("https://excalidraw.com/Virgil.woff2");
      }
      @font-face {
        font-family: "Cascadia";
        src: url("https://excalidraw.com/Cascadia.woff2");
      }
    </style>
  </defs>
  <rect x="0" y="0" width="1316.4095610919483" height="888.3000259014558" fill="#ffffff"></rect><g stroke-opacity="0.3" fill-opacity="0.3" stroke-linecap="round" transform="translate(882.2114886160577 10) rotate(0 212.09903623794526 409.94852482166164)"><path d="M0 0 C0 0, 0 0, 0 0 M0 0 C0 0, 0 0, 0 0 M0.45 11.96 C2.1 7.02, 5.6 2.51, 11.49 0.24 M-0.5 12.71 C4.75 7.87, 7.94 3.2, 10.4 0.12 M1.64 23.52 C7.15 17.42, 11.41 11.61, 21.49 -1.69 M0.8 24.66 C4.65 18.04, 8.98 13.24, 21.27 -0.69 M-0.42 38.82 C10.13 27.91, 16.01 14.94, 32.79 0.1 M-0.4 36.9 C10.66 24.11, 23.4 10.95, 32.62 -0.84 M-0.16 48.09 C14.03 32.63, 30.64 15.78, 43.58 1.26 M-0.83 48.09 C9.77 38.44, 19.3 25.7, 41.56 0.86 M-1.82 60.24 C11.31 48.05, 22.39 35.7, 54.31 -0.46 M-0.7 61.36 C10.98 46.94, 23.67 33.67, 52.45 -0.96 M-0.53 71.59 C19.11 51.12, 35.5 31.45, 64.15 -1.42 M0.64 73.56 C19.4 52.82, 35.99 33.63, 64.72 -0.04 M1.33 86.33 C16.3 67.59, 35.71 46.38, 75.25 -0.33 M-0.11 84.16 C26.53 54.92, 52.87 25.72, 74.76 -0.4 M1.7 97.07 C16.57 77.69, 37.65 56.43, 84.99 1.5 M-0.93 98.13 C31.42 61.02, 61.76 26.01, 85.77 -0.18 M1.69 109.57 C34.99 69.14, 75.8 25.16, 94.22 -0.08 M-0.02 109.03 C27.1 77.28, 55.55 43.89, 95.66 0.46 M1.95 122.96 C42.31 73.92, 84.72 27.8, 107.53 -0.35 M0.15 121.67 C30.49 84.61, 63.09 48, 106.91 -0.53 M1.5 134.55 C27.58 103.4, 54.5 68.87, 116.81 -1.17 M-0.66 133.22 C46.26 82.4, 92.39 27.91, 115.8 -0.2 M1.32 144.29 C48.98 92.22, 94.74 37.74, 128.16 1.74 M0.77 146.1 C30.26 110.19, 62.98 75.53, 126.89 0.5 M-0.05 159.22 C30.04 123.08, 61.16 88.88, 138.11 -0.79 M0.24 158.83 C49.2 99.66, 100.31 40.34, 137.04 -0.53 M0.4 170.55 C31.06 130.54, 64.2 93.15, 148.77 0.58 M-0.86 171.13 C51.84 109.31, 106.14 47.33, 147.68 0.08 M-1.14 181.4 C55.76 118.61, 108.96 54.84, 159.11 -0.03 M0.86 182.78 C48.24 126.9, 97.93 70, 158.32 0.83 M1.45 195.07 C57.62 127.15, 118.84 57.95, 169.32 1.49 M0.13 194.33 C63.91 120.41, 128.54 46.35, 170.02 -0.49 M0.51 206.2 C59.05 141.85, 115.11 75.85, 180.71 -1.27 M0.74 206.18 C50.33 150.07, 101.18 90.99, 180.33 -0.4 M0.29 220.73 C51.73 160.76, 102.75 100.8, 189.7 0.32 M-0.13 219.4 C44.05 170.09, 88.91 119.46, 191.32 0.5 M0.4 230.73 C70.35 153.09, 138.98 70.58, 200.43 1.15 M0.25 231.38 C72.92 148.24, 145.79 63.98, 201.5 -0.33 M-1.3 243 C42.89 193.57, 88.98 143.18, 212.42 1.29 M-0.01 243.5 C83.22 148.47, 167.29 52.39, 211.89 0.03 M-0.58 254.99 C87.79 157.46, 173.12 56.39, 221.59 -0.46 M-0.42 256.54 C84.2 156.63, 170.3 58.43, 222.84 -0.23 M1.34 267.17 C72.96 180.55, 149.34 94.93, 233.88 -1.28 M0.85 267.6 C86.48 167.6, 172.37 69.11, 232.75 -0.38 M0.71 280.63 C73.05 196.34, 146.4 111.24, 243.89 -0.26 M-0.18 280.31 C89.97 177.48, 181.05 73.37, 243.33 0.07 M-0.79 293.91 C71.38 213.4, 142.88 131.64, 253.64 -0.53 M-0.33 292.48 C51.47 232.06, 104.6 171.18, 254.15 0.27 M-0.56 305.24 C67.59 226.24, 134.76 148.13, 264.58 0.44 M0.1 304.77 C86.12 209.28, 169.64 112.55, 265.23 -0.52 M0.58 316.36 C73.72 233.44, 148.69 146.77, 275.58 -1.2 M0.16 316.56 C97.39 206.18, 194.76 93.51, 275.82 0.38 M0.81 328.16 C103.58 206.91, 207.25 87.1, 285.71 -0.13 M-0.11 328.92 C59.8 259.25, 121.37 189.56, 286.55 0.21 M-1.07 341.46 C60.27 270.42, 121.45 200.66, 296.26 0.44 M-0.65 341.2 C69.79 260.37, 139.43 180.53, 297.13 -0.24 M0.5 354.05 C73.87 268.94, 148.66 184.32, 308.47 -0.18 M0.12 354.09 C68.97 273.46, 137.51 194.9, 307.43 -0.06 M0.7 365.32 C98.72 250.92, 196.62 139.11, 318.48 -0.86 M-0.3 365.6 C82.58 271.12, 163.68 178.78, 318.22 -0.01 M0.57 378.23 C71.11 294.21, 143.45 211.4, 328.5 -0.85 M0.28 377.43 C96.2 266.47, 192.1 155.81, 328.49 -0.39 M0.59 389.61 C112.75 259.25, 223.74 130.13, 339.2 0.26 M0.17 390.09 C137.12 234.22, 272.2 78.75, 339.65 -0.35 M0.14 402.58 C124.17 259.89, 247.27 116.54, 349.63 0.21 M-0.17 402.46 C122.75 263.66, 244.91 123.28, 349.12 0.49 M0.44 415.2 C119.64 276.72, 238.93 137.95, 359.9 0.41 M-0.43 414.34 C85.65 316.65, 170.95 218.62, 360.12 0.67 M0.61 426.59 C82.97 330.46, 167.07 235.28, 370.55 0.8 M0.34 427.03 C109.68 297.37, 220.83 169.59, 370.47 -0.08 M0.42 438.54 C114.97 306.23, 228.1 174.22, 382.08 -0.1 M-0.06 438.8 C121.9 299.06, 243.48 160.01, 381.6 0.15 M-0.91 452.16 C127.31 307.46, 252.83 164.03, 392.76 0.33 M-0.35 451.2 C94.01 345.03, 187.41 237.5, 392.19 -0.14 M-0.43 463.18 C133.42 308.34, 267.6 154.74, 401.96 0.63 M-0.41 463.7 C149.37 290.78, 300.18 117.9, 402.96 -0.2 M-0.04 475.94 C106.71 355.82, 210.95 235.71, 413.45 0.02 M0.32 475.9 C97.22 365.91, 192.8 255.6, 413.43 -0.17 M-0.61 487.46 C108 362.94, 216.17 239.3, 424.27 -0.12 M-0.12 487.73 C135.03 333, 268.22 179.42, 424.23 0.52 M0.69 499.36 C152.21 322.89, 304.4 148.69, 429.87 5.73 M0.2 499.48 C143.11 332.64, 287.52 167.02, 430.07 5.35 M0.22 512.04 C88.36 412.12, 175.21 311.56, 430.48 18.07 M0.05 512.57 C101.53 395.78, 201.77 281.04, 429.99 17.27 M0.19 524.82 C117.3 390.67, 234.16 256.61, 430.31 29.36 M0 524.2 C163.88 336.19, 327.75 146.83, 430.41 29.39 M0.06 537.13 C102.29 418.53, 204.43 300.66, 430.99 42.22 M0.04 536.76 C86.27 436.29, 174.07 334.87, 430.38 41.81 M0.8 548.61 C162.51 364.47, 322.63 179.79, 430.46 53.67 M-0.28 548.4 C164.07 356.29, 330.01 165.58, 429.99 53.94 M-0.41 561.36 C143.78 396.48, 287.26 230.71, 430.53 66.43 M-0.12 561.07 C123.05 418.51, 245.2 278.11, 429.7 66.37 M0.46 574.18 C150.39 400.27, 298.66 229.26, 429.83 78.95 M-0.44 573.33 C147.79 401.91, 296.26 231.47, 430.39 78.29 M-0.63 585.89 C167.3 389.99, 336.62 196.71, 429.73 90.29 M0.1 585.36 C133.2 430.8, 266.55 278.19, 430.35 90.04 M-0.39 598.11 C169.41 400.11, 341.72 202.48, 430.6 102.34 M-0.36 597.17 C99.78 480.44, 200.9 364.82, 430.12 102.36 M0.13 608.99 C94.67 500.46, 191.59 389.71, 429.64 115.74 M0.45 609.59 C127.51 462.85, 255.63 316.37, 429.42 115.61 M-0.23 621.81 C106.4 496.3, 213.76 374.04, 430.01 126.71 M0.21 621.89 C92.5 516.9, 184.1 411.25, 429.72 127.57 M-0.12 634.48 C156.11 456.96, 310.42 278.93, 430.6 139.48 M-0.66 634.22 C105.75 511.67, 212.4 388.81, 430.27 139.63 M-0.91 646.01 C145.41 475.39, 293.33 305.31, 430.32 152.01 M-0.45 646.18 C97.12 536.81, 193.31 425.61, 429.82 151.41 M0.66 657.72 C109.48 529.25, 222.17 399.65, 430.81 163.01 M-0.13 658.25 C147.42 489.39, 294.81 320.22, 429.98 163.2 M0.77 670.15 C103.42 551.8, 208.24 431.12, 429.42 175.78 M0.02 670.38 C165.79 481.28, 331.49 290.67, 429.66 175.92 M0.81 682.09 C122.63 540.33, 245.69 397.86, 429.95 188.76 M0.47 682.85 C144.56 512.89, 290.48 344.31, 430.1 188.17 M0.4 696.04 C98.44 581.11, 196.39 466.93, 430.85 199.87 M-0.59 695.4 C85.38 597.38, 171.57 498.09, 430.02 200.02 M0.12 707.1 C142.78 539.08, 288.69 373.4, 429.49 213.07 M0.03 707.53 C167.97 515, 333.74 323.58, 429.84 212.43 M-0.73 720.2 C128.44 570.68, 258.26 422.09, 429.66 224.55 M0.21 719.83 C152.6 545.68, 304.67 370.92, 430.15 224.05 M0.19 730.97 C91.88 624.9, 184.56 518.32, 429.75 237.85 M-0.13 731.85 C88.59 628.66, 177.4 526.5, 430.23 236.83 M-0.26 744 C158.98 560.32, 320.98 375.02, 430.33 249.46 M0.24 743.66 C134.25 592.52, 266.67 439.63, 429.79 249.05 M-0.13 755.88 C105.27 632.28, 212.69 507.82, 430.29 261.32 M-0.01 756.71 C129.56 605.89, 259.34 456.15, 429.82 261.52 M-0.78 768.11 C121.75 628.29, 245.2 486.63, 429.57 272.88 M0.17 768.41 C132.8 612.05, 266.71 457.46, 430.33 272.95 M0.45 780.32 C123.37 638.17, 246.15 497.4, 430.2 284.94 M0.26 780.73 C157.39 599.05, 313.77 418.47, 430.47 285.63 M0.16 791.93 C168.9 598.07, 338.42 403.44, 429.32 298.71 M-0.09 792.44 C167.86 599.07, 337.07 405.13, 430.21 298.19 M-0.47 804.43 C122 661.23, 246.51 518.65, 429.97 309.51 M-0.12 804.71 C109.13 675.48, 219.85 548.27, 429.7 309.84 M-1 817.21 C159.89 635.1, 319.43 452.08, 430.78 322.36 M-0.35 817.09 C151.17 639.07, 305.04 462.58, 430.15 322.55 M3.94 823.99 C150.21 656.29, 295.55 488.06, 430.35 334.5 M4.7 824.1 C102.4 710.91, 202.45 596.59, 429.89 334.07 M14.56 824.68 C102.67 726.35, 189.39 626.95, 429.84 345.63 M15.34 824.02 C180.07 635.49, 344.67 446.28, 430.19 345.97 M26.33 823.58 C127.33 709.16, 227.66 592.3, 429.28 358.57 M25.44 823.69 C154.85 674.02, 285.52 524.06, 429.66 358.79 M36.08 824.59 C120.65 725.46, 207.6 626.61, 430.24 371.32 M36.38 824.2 C147.2 695.76, 258.1 567.99, 430.06 371.53 M47.45 823.44 C173.55 680.21, 300.09 535.18, 430.41 383.1 M47.12 823.73 C176.33 675.5, 304.94 527.58, 429.92 382.97 M58.17 823.63 C144.17 724.31, 231.21 623.31, 429.53 394.47 M57.36 824.02 C191.99 668.3, 327.76 512.5, 430.31 395.16 M68.15 823.53 C150.24 730.92, 230.38 638.13, 430.44 407.9 M68.28 823.98 C164.88 713.16, 261.33 602.22, 430.11 406.98 M79.6 824.26 C150.34 742.15, 220.71 661.69, 430.5 420.51 M78.48 823.78 C210.84 671.09, 343.53 517.36, 430.15 419.75 M89.11 823.18 C187.96 710.71, 285.51 598.42, 430.74 432.1 M89.55 824.09 C187.06 709.72, 284.66 597.04, 430.13 431.9 M100.58 823.45 C227.34 675.71, 356.15 527.62, 430.4 444.8 M100.39 823.72 C180.73 731.81, 260.84 640.31, 430.29 444.3 M110.89 824.28 C173.01 750.35, 239.11 674.55, 429.65 456.78 M110.39 823.68 C225.23 691.45, 339.72 559.82, 429.91 456.51 M121.17 823.99 C239.16 686.14, 358.29 549.67, 430.82 467.44 M120.99 824.04 C197.2 736.56, 273.02 649.03, 430.78 468.38 M132.31 823.07 C237.4 700.18, 346.72 575.57, 429.18 480.33 M131.58 823.89 C194.13 749.91, 257.53 676.69, 429.65 480.82 M143.03 822.92 C228.53 724.55, 312.17 628.04, 429.76 492.97 M142.84 823.99 C221.37 732.48, 299.26 642.77, 430.49 493.05 M153.57 823.72 C230.89 735.12, 306.92 645.57, 431.06 504.31 M152.78 823.17 C255.53 707.03, 357.91 589.95, 430.38 505.19 M164.07 823.93 C253.72 719.55, 344.05 616.96, 430.88 518.08 M163.75 823.41 C265.7 708.47, 366.08 592.61, 430.71 517.13 M174.08 825.16 C273.68 708.52, 373.47 592.98, 430.22 528.48 M173.53 824.53 C255.94 726.6, 339.81 630.35, 430.43 529.55 M185.23 824.75 C248.07 748.63, 313.65 675.97, 428.7 542.88 M184.2 824.05 C234.36 768.96, 283.14 711.68, 429.61 542.48 M195.05 824.71 C253.19 756.14, 313.39 687.22, 429.73 553.54 M194.87 824.49 C280.71 724.24, 367.02 624.48, 429.79 554.57 M204.5 823.82 C280.2 739.28, 356.11 652.66, 429.1 565.57 M205.31 824.31 C288.57 729.86, 371.36 635.48, 429.94 566.61 M215.42 823.17 C285.32 743.49, 356.68 663.92, 430.39 576.79 M216.59 823.63 C293.32 737.45, 367.15 652.55, 430.14 578.52 M227.96 823.59 C290.34 750.56, 355.57 677.21, 431.67 591.19 M226.97 824.64 C281.74 759.32, 337.56 695.51, 431 590.22 M237.38 825.44 C278.93 776.65, 317.34 731.62, 429.83 602.91 M237.18 824.66 C299.53 751.94, 360.94 681.31, 430.02 602.45 M248.86 825.12 C307.45 755.3, 366.65 687.28, 429.5 615.64 M247.75 824.5 C305.08 758.96, 361.78 694.54, 429.82 615.43 M260.31 823.87 C295.97 782.69, 330.4 742.07, 430.85 626.88 M258.83 824.55 C309.54 765.25, 360.78 705.49, 429.92 627.38 M271.18 825.05 C329.57 753.51, 389.88 685.25, 431.91 639.59 M270.03 824.67 C308.4 781.15, 345.53 738.97, 430.66 639.08 M279.56 824.14 C331.98 762.14, 384.22 703.27, 431.02 650.27 M280.25 824.31 C325.28 772.26, 369.31 721.28, 430.81 650.29 M289.2 824.66 C343.74 758.26, 401.15 696.77, 430.06 662.43 M290.92 824.25 C346.3 760.04, 401.62 695.13, 430.01 663.87 M299.64 824.97 C346.92 768.28, 395.44 714.16, 430.74 677.26 M300.83 823.25 C341.31 779.24, 381.09 734.39, 429.74 676.04 M310.19 824.11 C343.88 789.07, 372.6 753.48, 430.24 689.86 M311.49 823.78 C351.65 780.55, 389.2 736.05, 429.3 687.76 M322.85 822.64 C358.35 781.31, 398.11 738.51, 432.1 700.82 M323.13 824.41 C352.22 789.72, 383.29 754.66, 430.21 700.42 M331.59 821.94 C362.86 791.5, 391.36 757.13, 429.82 713.61 M332.54 823.78 C363.97 787.52, 396.54 752.24, 429.45 712.7 M342.32 823.99 C365.45 797.87, 391.09 772.26, 430.46 726.82 M344.96 822.79 C375.45 787.08, 408.65 748.51, 430.64 725.38 M353.21 823.23 C375.81 803.34, 392.89 778.27, 429.52 734.92 M353.96 824.66 C376.57 797.95, 398.04 771.96, 430.58 736.45 M366.9 822.19 C377.54 807.13, 393.23 792.39, 431.29 748.58 M365.3 823.13 C385.39 799.22, 406.04 775.55, 431.17 749.8 M374.75 823.34 C392.91 803.46, 410.21 781.12, 431.65 759.33 M376.84 824.55 C392.63 805.1, 407.75 787.09, 429.91 760.3 M385.09 824.77 C397.94 811.45, 408.57 799.8, 429.74 772.11 M386.35 824 C395.52 810.82, 406.32 799.5, 431.15 772.67 M395.49 824 C406.94 814.21, 412.29 805.32, 431.5 785.77 M397.45 823.42 C409.9 808.61, 422.8 794.54, 429.26 786.37 M408.33 822.42 C414.18 817.84, 417.93 812, 428.57 797.77 M406.8 824.5 C410.86 819.24, 416.22 813.82, 429.16 798.74 M417.7 825.98 C421.25 820.1, 424.55 818.15, 430.59 808.58 M418.56 823.82 C421.61 819.39, 427.79 813.31, 430.24 809.61" stroke="#ced4da" stroke-width="1" fill="none"></path><path d="M-0.69 0.39 C137.78 -2.32, 275.1 -0.7, 424.68 -0.83 M423.85 0.49 C420.68 292.87, 421.16 586.81, 424.5 819.11 M425.14 818.94 C256.82 818.03, 90.55 818.17, -0.88 820.67 M0.38 819.51 C1.35 544.32, 0.98 268.69, 0.4 0" stroke="#000000" stroke-width="2.5" fill="none" stroke-dasharray="8 10"></path></g><g stroke-linecap="round"><g transform="translate(241.18400428920972 694.2553862255511) rotate(0 346.2124662742019 -1.4404780015349274)"><path d="M-0.76 0.15 C114.6 -0.3, 577.76 -2.59, 693.18 -3.03 M1.04 -0.81 C116.25 -1.13, 577.88 -1.93, 692.86 -2.04" stroke="#000000" stroke-width="1" fill="none"></path></g><g transform="translate(241.18400428920972 694.2553862255511) rotate(0 346.2124662742019 -1.4404780015349274)"><path d="M27.64 -8.27 C14.73 -6.74, 4.71 -3.82, -0.23 0.95 M27.98 -10 C19.54 -8.48, 13.27 -5.43, -1.57 0.31" stroke="#000000" stroke-width="1" fill="none"></path></g><g transform="translate(241.18400428920972 694.2553862255511) rotate(0 346.2124662742019 -1.4404780015349274)"><path d="M27.73 12.26 C14.84 5.83, 4.78 0.8, -0.23 0.95 M28.08 10.52 C19.54 6.61, 13.25 4.24, -1.57 0.31" stroke="#000000" stroke-width="1" fill="none"></path></g><g transform="translate(241.18400428920972 694.2553862255511) rotate(0 346.2124662742019 -1.4404780015349274)"><path d="M664.94 10.24 C673.9 4.1, 685.7 -1, 693.38 -1.24 M665.28 8.5 C671.65 4.87, 680.28 2.45, 692.05 -1.88" stroke="#000000" stroke-width="1" fill="none"></path></g><g transform="translate(241.18400428920972 694.2553862255511) rotate(0 346.2124662742019 -1.4404780015349274)"><path d="M664.91 -10.29 C673.83 -8.47, 685.64 -5.62, 693.38 -1.24 M665.25 -12.02 C671.7 -10.23, 680.33 -7.22, 692.05 -1.88" stroke="#000000" stroke-width="1" fill="none"></path></g></g><g stroke-linecap="round" transform="translate(14.312387345401532 190.9868692756623) rotate(0 155.04579003890106 92.79315732350139)"><path d="M-0.19 -0.63 C72.46 1.95, 144.11 1.33, 310.51 -0.06 M0.35 -0.11 C123.02 1.42, 246.11 1.65, 310 -0.62 M309.18 -0.42 C312.15 54.09, 308.99 104.48, 308.32 185.55 M309.12 -0.78 C310.38 68.61, 311.39 138.88, 310.22 185.01 M308.84 186.14 C235.03 186.35, 156.96 186.59, -0.1 184.35 M310.53 185.37 C224.1 184.89, 138.81 185, -0.7 185.68 M0.74 187.26 C0.89 125.05, -1.94 68.32, 0.32 -1.31 M0.02 184.91 C0.69 128.16, -0.71 71.9, -0.56 -0.21" stroke="#000000" stroke-width="1" fill="none"></path></g><g stroke-linecap="round"><g transform="translate(11.704287547692672 216.97222593644906) rotate(0 155.69674730284243 0.6460530813038332)"><path d="M-0.16 -0.52 C52.18 -0.28, 260.89 0.97, 313.1 1.17 M-1.7 1.82 C50.63 1.78, 260.11 0.19, 312.51 -0.34" stroke="#000000" stroke-width="1" fill="none"></path></g></g><g stroke-linecap="round" transform="translate(25.194935574002216 201.3445334879852) rotate(0 6.064345580215303 6.064345580215289)"><path d="M12.13 6.06 C12.13 6.42, 12.1 6.77, 12.04 7.12 C11.98 7.46, 11.88 7.81, 11.76 8.14 C11.64 8.47, 11.49 8.79, 11.32 9.1 C11.14 9.4, 10.94 9.69, 10.71 9.96 C10.48 10.23, 10.23 10.48, 9.96 10.71 C9.69 10.94, 9.4 11.14, 9.1 11.32 C8.79 11.49, 8.47 11.64, 8.14 11.76 C7.81 11.88, 7.46 11.98, 7.12 12.04 C6.77 12.1, 6.42 12.13, 6.06 12.13 C5.71 12.13, 5.36 12.1, 5.01 12.04 C4.67 11.98, 4.32 11.88, 3.99 11.76 C3.66 11.64, 3.34 11.49, 3.03 11.32 C2.73 11.14, 2.44 10.94, 2.17 10.71 C1.9 10.48, 1.64 10.23, 1.42 9.96 C1.19 9.69, 0.99 9.4, 0.81 9.1 C0.64 8.79, 0.49 8.47, 0.37 8.14 C0.25 7.81, 0.15 7.46, 0.09 7.12 C0.03 6.77, 0 6.42, 0 6.06 C0 5.71, 0.03 5.36, 0.09 5.01 C0.15 4.67, 0.25 4.32, 0.37 3.99 C0.49 3.66, 0.64 3.34, 0.81 3.03 C0.99 2.73, 1.19 2.44, 1.42 2.17 C1.64 1.9, 1.9 1.64, 2.17 1.42 C2.44 1.19, 2.73 0.99, 3.03 0.81 C3.34 0.64, 3.66 0.49, 3.99 0.37 C4.32 0.25, 4.67 0.15, 5.01 0.09 C5.36 0.03, 5.71 0, 6.06 0 C6.42 0, 6.77 0.03, 7.12 0.09 C7.46 0.15, 7.81 0.25, 8.14 0.37 C8.47 0.49, 8.79 0.64, 9.1 0.81 C9.4 0.99, 9.69 1.19, 9.96 1.42 C10.23 1.64, 10.48 1.9, 10.71 2.17 C10.94 2.44, 11.14 2.73, 11.32 3.03 C11.49 3.34, 11.64 3.66, 11.76 3.99 C11.88 4.32, 11.98 4.67, 12.04 5.01 C12.1 5.36, 12.11 5.89, 12.13 6.06 C12.14 6.24, 12.14 5.89, 12.13 6.06" stroke="none" stroke-width="0" fill="#fa5252"></path><path d="M12.13 6.06 C12.13 6.42, 12.1 6.77, 12.04 7.12 C11.98 7.46, 11.88 7.81, 11.76 8.14 C11.64 8.47, 11.49 8.79, 11.32 9.1 C11.14 9.4, 10.94 9.69, 10.71 9.96 C10.48 10.23, 10.23 10.48, 9.96 10.71 C9.69 10.94, 9.4 11.14, 9.1 11.32 C8.79 11.49, 8.47 11.64, 8.14 11.76 C7.81 11.88, 7.46 11.98, 7.12 12.04 C6.77 12.1, 6.42 12.13, 6.06 12.13 C5.71 12.13, 5.36 12.1, 5.01 12.04 C4.67 11.98, 4.32 11.88, 3.99 11.76 C3.66 11.64, 3.34 11.49, 3.03 11.32 C2.73 11.14, 2.44 10.94, 2.17 10.71 C1.9 10.48, 1.64 10.23, 1.42 9.96 C1.19 9.69, 0.99 9.4, 0.81 9.1 C0.64 8.79, 0.49 8.47, 0.37 8.14 C0.25 7.81, 0.15 7.46, 0.09 7.12 C0.03 6.77, 0 6.42, 0 6.06 C0 5.71, 0.03 5.36, 0.09 5.01 C0.15 4.67, 0.25 4.32, 0.37 3.99 C0.49 3.66, 0.64 3.34, 0.81 3.03 C0.99 2.73, 1.19 2.44, 1.42 2.17 C1.64 1.9, 1.9 1.64, 2.17 1.42 C2.44 1.19, 2.73 0.99, 3.03 0.81 C3.34 0.64, 3.66 0.49, 3.99 0.37 C4.32 0.25, 4.67 0.15, 5.01 0.09 C5.36 0.03, 5.71 0, 6.06 0 C6.42 0, 6.77 0.03, 7.12 0.09 C7.46 0.15, 7.81 0.25, 8.14 0.37 C8.47 0.49, 8.79 0.64, 9.1 0.81 C9.4 0.99, 9.69 1.19, 9.96 1.42 C10.23 1.64, 10.48 1.9, 10.71 2.17 C10.94 2.44, 11.14 2.73, 11.32 3.03 C11.49 3.34, 11.64 3.66, 11.76 3.99 C11.88 4.32, 11.98 4.67, 12.04 5.01 C12.1 5.36, 12.11 5.89, 12.13 6.06 C12.14 6.24, 12.14 5.89, 12.13 6.06" stroke="#000000" stroke-width="1" fill="none"></path></g><g stroke-linecap="round" transform="translate(50.07982729695516 201.3445334879852) rotate(0 6.064345580215303 6.064345580215289)"><path d="M12.13 6.06 C12.13 6.42, 12.1 6.77, 12.04 7.12 C11.98 7.46, 11.88 7.81, 11.76 8.14 C11.64 8.47, 11.49 8.79, 11.32 9.1 C11.14 9.4, 10.94 9.69, 10.71 9.96 C10.48 10.23, 10.23 10.48, 9.96 10.71 C9.69 10.94, 9.4 11.14, 9.1 11.32 C8.79 11.49, 8.47 11.64, 8.14 11.76 C7.81 11.88, 7.46 11.98, 7.12 12.04 C6.77 12.1, 6.42 12.13, 6.06 12.13 C5.71 12.13, 5.36 12.1, 5.01 12.04 C4.67 11.98, 4.32 11.88, 3.99 11.76 C3.66 11.64, 3.34 11.49, 3.03 11.32 C2.73 11.14, 2.44 10.94, 2.17 10.71 C1.9 10.48, 1.64 10.23, 1.42 9.96 C1.19 9.69, 0.99 9.4, 0.81 9.1 C0.64 8.79, 0.49 8.47, 0.37 8.14 C0.25 7.81, 0.15 7.46, 0.09 7.12 C0.03 6.77, 0 6.42, 0 6.06 C0 5.71, 0.03 5.36, 0.09 5.01 C0.15 4.67, 0.25 4.32, 0.37 3.99 C0.49 3.66, 0.64 3.34, 0.81 3.03 C0.99 2.73, 1.19 2.44, 1.42 2.17 C1.64 1.9, 1.9 1.64, 2.17 1.42 C2.44 1.19, 2.73 0.99, 3.03 0.81 C3.34 0.64, 3.66 0.49, 3.99 0.37 C4.32 0.25, 4.67 0.15, 5.01 0.09 C5.36 0.03, 5.71 0, 6.06 0 C6.42 0, 6.77 0.03, 7.12 0.09 C7.46 0.15, 7.81 0.25, 8.14 0.37 C8.47 0.49, 8.79 0.64, 9.1 0.81 C9.4 0.99, 9.69 1.19, 9.96 1.42 C10.23 1.64, 10.48 1.9, 10.71 2.17 C10.94 2.44, 11.14 2.73, 11.32 3.03 C11.49 3.34, 11.64 3.66, 11.76 3.99 C11.88 4.32, 11.98 4.67, 12.04 5.01 C12.1 5.36, 12.11 5.89, 12.13 6.06 C12.14 6.24, 12.14 5.89, 12.13 6.06" stroke="none" stroke-width="0" fill="#fab005"></path><path d="M12.13 6.06 C12.13 6.42, 12.1 6.77, 12.04 7.12 C11.98 7.46, 11.88 7.81, 11.76 8.14 C11.64 8.47, 11.49 8.79, 11.32 9.1 C11.14 9.4, 10.94 9.69, 10.71 9.96 C10.48 10.23, 10.23 10.48, 9.96 10.71 C9.69 10.94, 9.4 11.14, 9.1 11.32 C8.79 11.49, 8.47 11.64, 8.14 11.76 C7.81 11.88, 7.46 11.98, 7.12 12.04 C6.77 12.1, 6.42 12.13, 6.06 12.13 C5.71 12.13, 5.36 12.1, 5.01 12.04 C4.67 11.98, 4.32 11.88, 3.99 11.76 C3.66 11.64, 3.34 11.49, 3.03 11.32 C2.73 11.14, 2.44 10.94, 2.17 10.71 C1.9 10.48, 1.64 10.23, 1.42 9.96 C1.19 9.69, 0.99 9.4, 0.81 9.1 C0.64 8.79, 0.49 8.47, 0.37 8.14 C0.25 7.81, 0.15 7.46, 0.09 7.12 C0.03 6.77, 0 6.42, 0 6.06 C0 5.71, 0.03 5.36, 0.09 5.01 C0.15 4.67, 0.25 4.32, 0.37 3.99 C0.49 3.66, 0.64 3.34, 0.81 3.03 C0.99 2.73, 1.19 2.44, 1.42 2.17 C1.64 1.9, 1.9 1.64, 2.17 1.42 C2.44 1.19, 2.73 0.99, 3.03 0.81 C3.34 0.64, 3.66 0.49, 3.99 0.37 C4.32 0.25, 4.67 0.15, 5.01 0.09 C5.36 0.03, 5.71 0, 6.06 0 C6.42 0, 6.77 0.03, 7.12 0.09 C7.46 0.15, 7.81 0.25, 8.14 0.37 C8.47 0.49, 8.79 0.64, 9.1 0.81 C9.4 0.99, 9.69 1.19, 9.96 1.42 C10.23 1.64, 10.48 1.9, 10.71 2.17 C10.94 2.44, 11.14 2.73, 11.32 3.03 C11.49 3.34, 11.64 3.66, 11.76 3.99 C11.88 4.32, 11.98 4.67, 12.04 5.01 C12.1 5.36, 12.11 5.89, 12.13 6.06 C12.14 6.24, 12.14 5.89, 12.13 6.06" stroke="#000000" stroke-width="1" fill="none"></path></g><g stroke-linecap="round" transform="translate(76.05762363893587 202.43743810701304) rotate(0 6.064345580215303 6.064345580215289)"><path d="M12.13 6.06 C12.13 6.42, 12.1 6.77, 12.04 7.12 C11.98 7.46, 11.88 7.81, 11.76 8.14 C11.64 8.47, 11.49 8.79, 11.32 9.1 C11.14 9.4, 10.94 9.69, 10.71 9.96 C10.48 10.23, 10.23 10.48, 9.96 10.71 C9.69 10.94, 9.4 11.14, 9.1 11.32 C8.79 11.49, 8.47 11.64, 8.14 11.76 C7.81 11.88, 7.46 11.98, 7.12 12.04 C6.77 12.1, 6.42 12.13, 6.06 12.13 C5.71 12.13, 5.36 12.1, 5.01 12.04 C4.67 11.98, 4.32 11.88, 3.99 11.76 C3.66 11.64, 3.34 11.49, 3.03 11.32 C2.73 11.14, 2.44 10.94, 2.17 10.71 C1.9 10.48, 1.64 10.23, 1.42 9.96 C1.19 9.69, 0.99 9.4, 0.81 9.1 C0.64 8.79, 0.49 8.47, 0.37 8.14 C0.25 7.81, 0.15 7.46, 0.09 7.12 C0.03 6.77, 0 6.42, 0 6.06 C0 5.71, 0.03 5.36, 0.09 5.01 C0.15 4.67, 0.25 4.32, 0.37 3.99 C0.49 3.66, 0.64 3.34, 0.81 3.03 C0.99 2.73, 1.19 2.44, 1.42 2.17 C1.64 1.9, 1.9 1.64, 2.17 1.42 C2.44 1.19, 2.73 0.99, 3.03 0.81 C3.34 0.64, 3.66 0.49, 3.99 0.37 C4.32 0.25, 4.67 0.15, 5.01 0.09 C5.36 0.03, 5.71 0, 6.06 0 C6.42 0, 6.77 0.03, 7.12 0.09 C7.46 0.15, 7.81 0.25, 8.14 0.37 C8.47 0.49, 8.79 0.64, 9.1 0.81 C9.4 0.99, 9.69 1.19, 9.96 1.42 C10.23 1.64, 10.48 1.9, 10.71 2.17 C10.94 2.44, 11.14 2.73, 11.32 3.03 C11.49 3.34, 11.64 3.66, 11.76 3.99 C11.88 4.32, 11.98 4.67, 12.04 5.01 C12.1 5.36, 12.11 5.89, 12.13 6.06 C12.14 6.24, 12.14 5.89, 12.13 6.06" stroke="none" stroke-width="0" fill="#40c057"></path><path d="M12.13 6.06 C12.13 6.42, 12.1 6.77, 12.04 7.12 C11.98 7.46, 11.88 7.81, 11.76 8.14 C11.64 8.47, 11.49 8.79, 11.32 9.1 C11.14 9.4, 10.94 9.69, 10.71 9.96 C10.48 10.23, 10.23 10.48, 9.96 10.71 C9.69 10.94, 9.4 11.14, 9.1 11.32 C8.79 11.49, 8.47 11.64, 8.14 11.76 C7.81 11.88, 7.46 11.98, 7.12 12.04 C6.77 12.1, 6.42 12.13, 6.06 12.13 C5.71 12.13, 5.36 12.1, 5.01 12.04 C4.67 11.98, 4.32 11.88, 3.99 11.76 C3.66 11.64, 3.34 11.49, 3.03 11.32 C2.73 11.14, 2.44 10.94, 2.17 10.71 C1.9 10.48, 1.64 10.23, 1.42 9.96 C1.19 9.69, 0.99 9.4, 0.81 9.1 C0.64 8.79, 0.49 8.47, 0.37 8.14 C0.25 7.81, 0.15 7.46, 0.09 7.12 C0.03 6.77, 0 6.42, 0 6.06 C0 5.71, 0.03 5.36, 0.09 5.01 C0.15 4.67, 0.25 4.32, 0.37 3.99 C0.49 3.66, 0.64 3.34, 0.81 3.03 C0.99 2.73, 1.19 2.44, 1.42 2.17 C1.64 1.9, 1.9 1.64, 2.17 1.42 C2.44 1.19, 2.73 0.99, 3.03 0.81 C3.34 0.64, 3.66 0.49, 3.99 0.37 C4.32 0.25, 4.67 0.15, 5.01 0.09 C5.36 0.03, 5.71 0, 6.06 0 C6.42 0, 6.77 0.03, 7.12 0.09 C7.46 0.15, 7.81 0.25, 8.14 0.37 C8.47 0.49, 8.79 0.64, 9.1 0.81 C9.4 0.99, 9.69 1.19, 9.96 1.42 C10.23 1.64, 10.48 1.9, 10.71 2.17 C10.94 2.44, 11.14 2.73, 11.32 3.03 C11.49 3.34, 11.64 3.66, 11.76 3.99 C11.88 4.32, 11.98 4.67, 12.04 5.01 C12.1 5.36, 12.11 5.89, 12.13 6.06 C12.14 6.24, 12.14 5.89, 12.13 6.06" stroke="#000000" stroke-width="1" fill="none"></path></g><g stroke-opacity="0.9" fill-opacity="0.9" stroke-linecap="round" transform="translate(114.9198976536635 241.36107846295135) rotate(0 51.79378234488456 51.79378234488456)"><path d="M53.2 -0.66 C61.52 -1.28, 72.17 2.32, 79.37 6.89 C86.57 11.46, 92.48 19.07, 96.42 26.76 C100.35 34.44, 102.96 44.15, 103.01 52.97 C103.05 61.79, 101 72.39, 96.68 79.68 C92.36 86.97, 84.66 92.64, 77.07 96.73 C69.49 100.83, 59.9 104.43, 51.16 104.24 C42.42 104.06, 32.19 100.2, 24.63 95.63 C17.07 91.05, 9.82 84.18, 5.8 76.79 C1.79 69.4, 0.38 59.81, 0.54 51.27 C0.7 42.74, 2.39 32.96, 6.75 25.59 C11.1 18.23, 18.44 11.19, 26.67 7.08 C34.9 2.96, 50.87 1.82, 56.12 0.9 C61.36 -0.01, 58.11 0.79, 58.14 1.57 M58.71 0.55 C66.66 1.09, 77.23 5.64, 83.93 11.06 C90.63 16.48, 95.92 25.01, 98.92 33.05 C101.92 41.1, 103.29 50.56, 101.92 59.32 C100.55 68.09, 95.8 78.81, 90.71 85.66 C85.63 92.51, 79.24 97.62, 71.41 100.43 C63.58 103.23, 52.3 103.73, 43.74 102.49 C35.19 101.26, 26.77 98.3, 20.08 93.04 C13.39 87.78, 6.77 79.17, 3.61 70.93 C0.45 62.69, -0.11 51.98, 1.13 43.61 C2.36 35.23, 5.44 27.49, 11.02 20.68 C16.6 13.87, 26.44 5.89, 34.6 2.72 C42.77 -0.45, 55.84 1.7, 60.03 1.65 C64.21 1.59, 60.12 1.53, 59.72 2.4" stroke="none" stroke-width="0" fill="#04aaf7"></path><path d="M59.17 0 C67.48 0.27, 77.69 5.54, 84.43 11.03 C91.17 16.53, 96.6 24.83, 99.61 32.98 C102.62 41.13, 103.7 51.59, 102.48 59.94 C101.25 68.29, 97.56 76.36, 92.27 83.08 C86.98 89.81, 78.58 97.02, 70.72 100.27 C62.86 103.52, 53.66 103.77, 45.11 102.58 C36.56 101.39, 26.23 98.55, 19.43 93.12 C12.63 87.69, 7.55 78.32, 4.32 70.02 C1.1 61.73, -1.08 51.65, 0.06 43.37 C1.2 35.09, 5.68 27.07, 11.17 20.36 C16.67 13.66, 23.64 6.22, 33.03 3.15 C42.42 0.09, 60.3 1.34, 67.51 1.98 C74.71 2.62, 76.24 5.94, 76.24 7.01 M54.22 0.59 C62.37 0.61, 71.72 4.56, 79.21 9.27 C86.7 13.99, 95.34 21.19, 99.18 28.88 C103.02 36.57, 102.97 47.03, 102.24 55.42 C101.51 63.81, 99.43 72.04, 94.78 79.22 C90.14 86.4, 82.13 94.31, 74.39 98.51 C66.65 102.71, 56.94 105.18, 48.32 104.4 C39.69 103.62, 29.95 98.88, 22.62 93.83 C15.3 88.78, 8.25 81.92, 4.36 74.11 C0.48 66.31, -1.42 55.45, -0.66 46.99 C0.09 38.54, 3.93 30.19, 8.9 23.38 C13.87 16.57, 21.36 9.79, 29.16 6.12 C36.95 2.45, 51.2 2.32, 55.67 1.37 C60.15 0.41, 56.36 -0.49, 56.02 0.38" stroke="#000000" stroke-width="1" fill="none"></path></g><g stroke-linecap="round"><g transform="translate(180.57878746966333 280.70174210979445) rotate(0 -8.399693586072715 15.713741248760584)" fill-rule="evenodd"><path d="M0 0 L-1.35 0.38 L-4.44 -1.01 L-14.99 -12.67 L-18.36 -15.21 L-23.63 -14.78 L-27.54 -10.54 L-29.84 -2.76 L-30.58 5.75 L-27.01 14.21 L-27.32 16.34 L-30.14 17.87 L-39.18 19.93 L-42.25 21.55 L-43.65 27.68 L-41.71 33.08 L-36.39 34.03 L-30.02 32.37 L-23.49 23.44 L-21.08 22.98 L-18.14 26.44 L-8.78 43.33 L-3.61 46.99 L-1.72 46.66 L-1.01 44.06 L-8.2 18.32 L-9.16 11.64 L-7.29 9.05 L-3.68 8.83 L3.36 10.54 L7.67 14.23 L19.24 15.21 L22.4 14.23 L24.58 11.62 L26.89 4.04 L26.19 1.54 L23.15 1.27 L13.35 3.33 L10.24 2.69 L9.91 -0.63 L13.3 -13.97 L12.19 -15.18 L10.25 -15.18 L6 -12.96 L-0.58 -2.24 L-0.7 -0.45 L0 0" stroke="none" stroke-width="0" fill="#40c057" fill-rule="evenodd"></path><path d="M0 0 C-0.74 -0.17, -1.38 1.53, -4.44 -1.01 C-7.5 -3.54, -14.51 -13.62, -18.36 -15.21 C-22.21 -16.8, -25.5 -14.04, -27.54 -10.54 C-29.58 -7.05, -30.62 1.27, -30.58 5.75 C-30.55 10.24, -25.38 13.71, -27.32 16.34 C-29.27 18.98, -39.85 18.76, -42.25 21.55 C-44.65 24.34, -43.75 31.28, -41.71 33.08 C-39.68 34.89, -33.46 34.05, -30.02 32.37 C-26.58 30.69, -24.62 21.16, -21.08 22.98 C-17.54 24.81, -12.12 39.81, -8.78 43.33 C-5.43 46.84, -0.94 49.34, -1.01 44.06 C-1.07 38.78, -9.89 17.23, -9.16 11.64 C-8.43 6.05, 0.56 10.11, 3.36 10.54 C6.17 10.97, 4.5 13.61, 7.67 14.23 C10.84 14.84, 19.31 16.34, 22.4 14.23 C25.48 12.11, 28.22 3.46, 26.19 1.54 C24.17 -0.38, 12.38 5.28, 10.24 2.69 C8.09 0.11, 14.01 -11.36, 13.3 -13.97 C12.6 -16.58, 8.31 -14.92, 6 -12.96 C3.68 -11.01, 0.42 -4.4, -0.58 -2.24 C-1.58 -0.08, -0.1 -0.37, 0 0 M0 0 C-0.74 -0.17, -1.38 1.53, -4.44 -1.01 C-7.5 -3.54, -14.51 -13.62, -18.36 -15.21 C-22.21 -16.8, -25.5 -14.04, -27.54 -10.54 C-29.58 -7.05, -30.62 1.27, -30.58 5.75 C-30.55 10.24, -25.38 13.71, -27.32 16.34 C-29.27 18.98, -39.85 18.76, -42.25 21.55 C-44.65 24.34, -43.75 31.28, -41.71 33.08 C-39.68 34.89, -33.46 34.05, -30.02 32.37 C-26.58 30.69, -24.62 21.16, -21.08 22.98 C-17.54 24.81, -12.12 39.81, -8.78 43.33 C-5.43 46.84, -0.94 49.34, -1.01 44.06 C-1.07 38.78, -9.89 17.23, -9.16 11.64 C-8.43 6.05, 0.56 10.11, 3.36 10.54 C6.17 10.97, 4.5 13.61, 7.67 14.23 C10.84 14.84, 19.31 16.34, 22.4 14.23 C25.48 12.11, 28.22 3.46, 26.19 1.54 C24.17 -0.38, 12.38 5.28, 10.24 2.69 C8.09 0.11, 14.01 -11.36, 13.3 -13.97 C12.6 -16.58, 8.31 -14.92, 6 -12.96 C3.68 -11.01, 0.42 -4.4, -0.58 -2.24 C-1.58 -0.08, -0.1 -0.37, 0 0" stroke="#087f5b" stroke-width="1" fill="none"></path></g></g><g stroke-linecap="round"><g stroke-opacity="0.9" fill-opacity="0.9" transform="translate(117.48790286004606 292.1916666210476) rotate(0 51.15862966925644 0.055836320583381394)"><path d="M0.35 -0.05 C17.44 -0.19, 86.4 -0.3, 103.24 -0.2 M-0.92 -1.13 C16.05 -1.14, 86.04 1.29, 102.91 1.24" stroke="#000000" stroke-width="1" fill="none"></path></g></g><g stroke-linecap="round"><g stroke-opacity="0.9" fill-opacity="0.9" transform="translate(129.84301107848023 254.7661590475625) rotate(0 35.54574741763901 6.371417479121192)"><path d="M0 0 C0.31 0.92, 0.21 3.83, 1.87 5.52 C3.53 7.21, 6.81 8.91, 9.95 10.15 C13.09 11.39, 16.1 12.45, 20.7 12.96 C25.3 13.47, 31.46 13.47, 37.54 13.21 C43.62 12.96, 52 12.81, 57.19 11.43 C62.37 10.05, 66.34 6.94, 68.66 4.93 C70.98 2.92, 70.69 0.29, 71.09 -0.64 M0 0 C0.31 0.92, 0.21 3.83, 1.87 5.52 C3.53 7.21, 6.81 8.91, 9.95 10.15 C13.09 11.39, 16.1 12.45, 20.7 12.96 C25.3 13.47, 31.46 13.47, 37.54 13.21 C43.62 12.96, 52 12.81, 57.19 11.43 C62.37 10.05, 66.34 6.94, 68.66 4.93 C70.98 2.92, 70.69 0.29, 71.09 -0.64" stroke="#000000" stroke-width="1" fill="none"></path></g></g><g stroke-opacity="0.9" fill-opacity="0.9" stroke-linecap="round" transform="translate(149.42057013377462 238.0087329934056) rotate(0 18.826604305089916 54.34236060292659)"><path d="M13.41 2.3 C16.27 -0.82, 20.51 0.32, 23.79 3 C27.06 5.68, 30.81 10.95, 33.07 18.38 C35.33 25.81, 36.73 37.8, 37.33 47.58 C37.94 57.36, 38.17 68.12, 36.71 77.04 C35.26 85.97, 31.51 95.99, 28.61 101.12 C25.7 106.25, 22.72 108.2, 19.28 107.82 C15.84 107.44, 10.92 103.95, 7.97 98.82 C5.02 93.69, 2.83 85.94, 1.59 77.05 C0.36 68.16, 0.18 55.41, 0.55 45.48 C0.91 35.55, 1.22 25.07, 3.78 17.49 C6.34 9.92, 13.29 2.66, 15.91 0.04 C18.52 -2.57, 19.34 0.91, 19.46 1.8 M12.41 2.62 C15.75 -0.71, 22.02 -0.4, 25.28 2.42 C28.54 5.23, 29.93 12.25, 31.95 19.49 C33.96 26.74, 36.79 36.18, 37.38 45.88 C37.97 55.59, 36.95 68.5, 35.5 77.73 C34.05 86.97, 31.57 96.31, 28.69 101.29 C25.8 106.27, 21.72 107.99, 18.18 107.62 C14.65 107.26, 10.37 104.55, 7.48 99.1 C4.59 93.65, 2.02 83.71, 0.85 74.92 C-0.33 66.12, -0.28 55.65, 0.42 46.35 C1.12 37.04, 2.75 26.25, 5.05 19.08 C7.36 11.9, 12.65 6.09, 14.27 3.3 C15.89 0.51, 14.98 1.45, 14.78 2.33" stroke="#000000" stroke-width="1" fill="none"></path></g><g stroke-linecap="round"><g stroke-opacity="0.9" fill-opacity="0.9" transform="translate(133.5188767283489 331.72197576305484) rotate(0 35.54574741763901 -6.577648984464844)"><path d="M0 0 C1.66 -1.75, 6.5 -8.25, 9.95 -10.48 C13.4 -12.71, 16.1 -12.85, 20.7 -13.38 C25.3 -13.9, 31.46 -13.9, 37.54 -13.64 C43.62 -13.38, 52 -13.22, 57.19 -11.8 C62.37 -10.37, 66.34 -7.17, 68.66 -5.09 C70.98 -3.01, 70.69 -0.3, 71.09 0.66 M0 0 C1.66 -1.75, 6.5 -8.25, 9.95 -10.48 C13.4 -12.71, 16.1 -12.85, 20.7 -13.38 C25.3 -13.9, 31.46 -13.9, 37.54 -13.64 C43.62 -13.38, 52 -13.22, 57.19 -11.8 C62.37 -10.37, 66.34 -7.17, 68.66 -5.09 C70.98 -3.01, 70.69 -0.3, 71.09 0.66" stroke="#000000" stroke-width="1" fill="none"></path></g></g><g transform="translate(37.184004289209724 274.2553862255511) rotate(0 28 12.5)"><text x="0" y="18" font-family="Virgil, Segoe UI Emoji" font-size="20px" fill="#000000" text-anchor="start" style="white-space: pre;" direction="ltr">HTML</text></g><g stroke-linecap="round" transform="translate(88.18400428920972 648.2553862255511) rotate(0 75 75)"><path d="M0 0 C0 0, 0 0, 0 0 M0 0 C0 0, 0 0, 0 0 M0.08 6.87 C1.26 5.21, 2.64 4.31, 5.11 0.29 M-0.19 6.26 C0.7 4.94, 1.74 3.62, 4.67 0.03 M1.41 13.43 C2.51 8.84, 7.13 3.59, 9.82 -0.83 M0.16 12.07 C4.01 6.74, 8.43 2.79, 10.87 0.44 M0.72 18.77 C1.6 13.67, 6.26 8.69, 14.08 -0.4 M0.73 18.89 C5.3 12.71, 9.87 6.82, 16.28 -0.39 M2.02 24.55 C3.01 19.19, 9.92 12.4, 22.4 -0.9 M0.39 24.7 C5.01 18.01, 8.91 12.33, 22.2 -0.64 M1.16 29.47 C5.42 20.53, 14.11 13.4, 26.67 -1.45 M-0.58 29.91 C7.38 21.98, 13.38 14.69, 26.99 -0.7 M-1.9 35.17 C11.08 23.79, 22.38 8.65, 31.39 -0.77 M-0.79 36.2 C9.49 26.15, 19.08 15.15, 32.56 -0.89 M2.14 43.03 C8.44 34.78, 16.28 23.37, 37.05 0.88 M0.47 42.24 C13.17 26.39, 27.3 10.66, 36.32 1.12 M-1.33 48.61 C11.64 36.15, 20.86 25.28, 44.21 1.82 M0.26 48.29 C13.86 31.72, 27.82 15.97, 42.54 -0.35 M0.68 54.55 C10.04 41.68, 20.78 31.43, 49.02 1.17 M0.74 54.41 C14.66 36.63, 30.99 19.24, 48.14 -0.51 M0.23 60.82 C22.26 37.15, 41.99 14.05, 51.3 -0.97 M-0.97 60.82 C15.93 43.33, 31.07 25.2, 54.07 -0.78 M-0.08 65.59 C21.06 39.67, 43.65 14.19, 58.13 -1.31 M-0.19 68.09 C17.87 46.57, 36.44 24.75, 57.14 -0.3 M-0.29 71.71 C15.94 55.46, 26.09 41.3, 63.87 -1.22 M0.56 73.76 C24.99 45.12, 50.29 14.93, 63.4 -0.58 M1.76 79.15 C22.34 53.19, 47.6 26.11, 69.74 -0.53 M-0.43 80.07 C14.7 59.77, 32.15 41.01, 67.92 0.94 M-0.16 83.91 C28.12 51.56, 58.9 15.96, 75.89 -1.34 M-0.27 85.01 C21.34 60.08, 42.24 36.44, 74.17 0.27 M0.9 90.23 C24.81 65.13, 47.38 37.54, 80.97 -1.79 M-0.71 91.81 C22.05 66.52, 41.88 43.01, 79.89 -0.71 M-1.53 97.52 C28.19 65.53, 56.67 33.8, 86.15 0.03 M-0.37 98.06 C19.21 75.41, 38.2 53.1, 84.37 -0.83 M1.49 104.79 C30.62 67.25, 62.09 30.81, 90.73 0.36 M-0.71 103.39 C25 76.37, 47.92 48.26, 90.35 0.73 M1.19 109.11 C28.73 77.13, 55.84 49.14, 96.18 -2.08 M-0.83 110.09 C36.75 69.53, 71.92 27.03, 95.34 -0.1 M-1.55 114.51 C38.66 70.65, 76.94 28.94, 101.71 0.09 M1.21 115.29 C22.41 91.52, 44.17 66.07, 101.45 0.1 M-0.6 122.21 C21.64 92.9, 46.35 67.43, 104.32 -0.89 M0.18 121.38 C27.42 88.56, 56.73 54.49, 106.78 -0.35 M-1.18 127.53 C34.1 89.63, 70.86 49.95, 110.38 -1.73 M0.42 128.14 C32.8 89, 68.55 50.24, 111.21 0.17 M-1.04 134.32 C46.04 85.52, 86.62 35.09, 115.02 0.84 M0.96 133.38 C38.23 88.45, 76.02 44.44, 117.11 0.75 M-1.59 139.46 C43.16 94.97, 83.25 49.89, 120.99 0.51 M-0.39 140.67 C42.59 92.17, 84.09 44.85, 122.48 0.57 M1.5 147.68 C34.82 102.94, 73.23 60.58, 127.49 1.82 M0.7 146.42 C46.3 90.5, 94.57 36.84, 127.06 0.64 M1.17 150.43 C35.22 113.04, 65.05 73.82, 131.68 -0.8 M1.19 151.71 C36.16 108.81, 73.7 67.07, 132.06 0.75 M8.12 152.32 C52.32 100.93, 98.59 45.99, 137.73 0.68 M6.34 151.85 C45.61 103.51, 86.63 57.96, 136.84 -0.48 M12.85 149.89 C50.4 103.71, 92.84 56.38, 143.89 -0.79 M12.07 150.54 C48 109.46, 83.31 67.92, 143.35 -0.55 M17.27 151.7 C52 107.51, 93.04 63.49, 147.34 -0.7 M16.53 150.57 C47.52 119.45, 76.4 85.38, 147.44 -0.08 M23.45 150.52 C72.25 91.77, 124.84 35.83, 151.77 2.57 M22.6 150.77 C63.75 105.41, 103.83 58.46, 152.06 2.83 M28.83 151.3 C61.18 113.1, 95.91 74.6, 153.67 8.15 M28.29 150.46 C66.31 108.06, 104.54 65.72, 152.79 8.66 M34.28 152.56 C56.21 124.39, 80.59 93.21, 151.81 13.47 M33.55 150.43 C66.93 111.15, 101.57 72.36, 151.81 13.87 M39.65 152.18 C80.75 99.14, 124.06 50.72, 152.65 19.66 M38.38 151.67 C75.22 109.73, 112.39 67.73, 152.54 19.27 M43.82 151.63 C78.65 110.06, 115.41 67.87, 153.78 25.19 M44.1 150.69 C82.05 106.88, 121.3 61.98, 151.32 25.82 M48.3 150.2 C84.61 108.61, 121.12 66.81, 151.28 30.74 M49.23 151.93 C84.95 111.95, 119.53 72.25, 152.11 32.85 M53.26 149.14 C84.72 117.71, 114.14 81.64, 150.61 37.65 M54.79 151.15 C76.54 125.64, 99.44 97.99, 151.62 38.66 M61.1 149.9 C83.28 121.89, 108.16 91.77, 151.43 44.41 M60.18 151.9 C97.21 107.62, 133.17 65.5, 151.41 44.21 M64.53 150.25 C83.72 129.87, 101.53 109.09, 153.02 49.49 M64.51 150.82 C84.4 127.1, 106.14 104.17, 151.59 50.26 M70.13 150.53 C89.73 127.11, 110.91 108.2, 151.83 55.65 M70.43 150.15 C90.6 126.8, 109.73 104.85, 151.7 56.79 M73.73 150.57 C93.91 129.81, 114.45 104.48, 150.87 64.8 M74.85 151.82 C91.4 131.01, 108.48 110.68, 152.33 62.15 M79.28 152.08 C98.79 128.86, 119.2 106.17, 152.6 70.45 M80.04 150.13 C97.62 133.53, 111.26 115.87, 151.29 68.69 M87.69 151.18 C111.85 121.95, 136.4 91.58, 153.75 76.15 M85.75 151.42 C107.25 127.13, 129.25 102.73, 152.74 75.47 M90.21 149.23 C108.56 130.92, 125.43 109.42, 152.69 80.45 M90.92 151.2 C109.74 128.66, 130.55 106.09, 151.85 80.37 M98.04 153.13 C112.82 132.88, 127.94 115.22, 153.06 87.07 M96.51 151.55 C117.81 127.55, 138.7 103.4, 152.64 86.53 M100.36 149.4 C113.7 136.75, 129.42 120.78, 151.13 93.83 M101.85 151.57 C120.26 131.12, 137.1 110.02, 152.72 94.47 M105.88 152.45 C125.69 131.25, 141.59 113.46, 150.65 99.08 M107.47 150.76 C120.31 137.05, 133.03 120.71, 152.35 98.77 M112.94 150.71 C121 138.26, 131.55 126.82, 151.72 106.18 M113.47 151.39 C121.96 140.55, 130.89 130, 152.61 105.73 M119.05 150.88 C132.09 133.91, 143.74 121.09, 152.16 110.39 M118.32 151.99 C126.35 140.5, 135.78 131.23, 153.05 110.51 M122.96 152.02 C129.59 141.97, 139.05 134.9, 153.08 119.09 M123.26 151.67 C130.72 143.93, 136.39 136.03, 152.58 118.56 M130.21 149.87 C134.75 144.36, 140.1 139.7, 152.33 122.71 M129.11 151.58 C137.54 140.7, 145.33 130.79, 151.13 124.73 M135.2 150.89 C139.85 143.92, 144.93 137.18, 153.26 131.12 M134.59 151.31 C139.23 144.98, 145.95 136.44, 151.75 128.99 M138.77 152.6 C145.63 146.16, 146.73 139.65, 151.66 136.17 M139.24 150.27 C141.64 147.55, 144.38 143.37, 151.79 137.03 M145.55 150.09 C147.29 147.72, 150.44 144.35, 151.61 141.02 M144.01 150.39 C146.38 147.9, 148.23 145.9, 151.89 142.17" stroke="#fab005" stroke-width="0.5" fill="none"></path><path d="M-1.23 -1.79 C48.24 -0.63, 92.24 1.24, 151.03 1.67 M-0.87 0.43 C32.39 0.56, 62.33 -0.12, 150.78 0.31 M150.72 -1.44 C150.32 40.59, 149.2 84.9, 150.28 151.75 M150.16 -1 C149.93 58.49, 149.45 118.32, 149.52 149.23 M148.03 151.29 C104.07 148.82, 59.14 151.83, -1.38 151.42 M149.7 149.93 C102.45 149.38, 53.45 148.69, 0.87 150.4 M-0.31 149.91 C-0.59 95.28, -3.34 42.39, -0.27 0.79 M0.2 150.28 C-1.04 97.3, 0.51 44.72, -0.74 -0.93" stroke="#000000" stroke-width="1" fill="none"></path></g><g transform="translate(127.82844873365411 690.2553862255511) rotate(0 36.5 35.5)"><text x="0" y="50" font-family="Virgil, Segoe UI Emoji" font-size="56.799999999999976px" fill="#000000" text-anchor="start" style="white-space: pre;" direction="ltr">JS</text></g><g stroke-linecap="round"><g transform="translate(157.74593728278057 633.2553862255511) rotate(0 1.1346418845371318 -118.17675110071895)"><path d="M1.14 0.43 C1.43 -38.79, 1.99 -195.36, 1.99 -234.78 M0.28 -0.39 C0.46 -40.05, 1.48 -197.63, 1.49 -236.78" stroke="#000000" stroke-width="1" fill="none"></path></g><g transform="translate(157.74593728278057 633.2553862255511) rotate(0 1.1346418845371318 -118.17675110071895)"><path d="M-8.28 -26.36 C-5.23 -18.78, -4.14 -10.49, 2.56 -1.01 M-8.63 -27.25 C-5.31 -20.59, -3.18 -11.56, 1.67 1.32" stroke="#000000" stroke-width="1" fill="none"></path></g><g transform="translate(157.74593728278057 633.2553862255511) rotate(0 1.1346418845371318 -118.17675110071895)"><path d="M12.24 -26.28 C8.67 -18.52, 3.15 -10.26, 2.56 -1.01 M11.89 -27.17 C9.25 -20.4, 5.41 -11.4, 1.67 1.32" stroke="#000000" stroke-width="1" fill="none"></path></g><g transform="translate(157.74593728278057 633.2553862255511) rotate(0 1.1346418845371318 -118.17675110071895)"><path d="M12.36 -207.12 C8.61 -217.54, 3.15 -227.46, 2.91 -238.23 M12.02 -208 C9.69 -217.62, 5.92 -225.01, 2.02 -235.9" stroke="#000000" stroke-width="1" fill="none"></path></g><g transform="translate(157.74593728278057 633.2553862255511) rotate(0 1.1346418845371318 -118.17675110071895)"><path d="M-8.16 -207.2 C-5.3 -217.79, -4.14 -227.68, 2.91 -238.23 M-8.5 -208.08 C-4.86 -217.81, -2.67 -225.17, 2.02 -235.9" stroke="#000000" stroke-width="1" fill="none"></path></g></g><g transform="translate(118.99176618855915 506.7553862255511) rotate(0 119 10)"><text x="0" y="14" font-family="Virgil, Segoe UI Emoji" font-size="16px" fill="#000000" text-anchor="start" style="white-space: pre;" direction="ltr">SPA  (Single Page Application)</text></g><g stroke-linecap="round"><g transform="translate(948.9973586801461 763.6087657668642) rotate(0 96.5982865314362 0.429953895386177)"><path d="M0.75 -0.68 C32.94 -0.84, 161.55 -0.35, 193.51 -0.25 M-0.32 1.57 C31.73 1.55, 160.91 1.29, 192.89 1.25" stroke="black" stroke-width="4" fill="none"></path></g></g><g stroke-linecap="round"><g transform="translate(949.9892533872671 763.3506689258097) rotate(0 -2.6200674493553606 -31.63262047451667)"><path d="M-0.68 0.61 C-2.65 -0.06, -8.68 -2.11, -11.08 -3.31 C-13.48 -4.51, -13.89 -4.34, -15.06 -6.58 C-16.24 -8.82, -17.83 -11.94, -18.11 -16.75 C-18.38 -21.56, -17.5 -30.91, -16.71 -35.45 C-15.92 -39.99, -15.31 -40.75, -13.39 -43.99 C-11.46 -47.24, -8.64 -51.84, -5.16 -54.92 C-1.69 -57.99, 4.43 -61.27, 7.45 -62.45 C10.46 -63.63, 12.02 -62.03, 12.92 -62.01 M1.16 -0.11 C-1.03 -0.68, -9.24 -0.58, -12.07 -1.97 C-14.89 -3.35, -14.82 -6.04, -15.77 -8.4 C-16.72 -10.76, -17.41 -11.65, -17.76 -16.13 C-18.1 -20.61, -18.24 -30.45, -17.83 -35.29 C-17.42 -40.12, -17.52 -42.2, -15.31 -45.14 C-13.09 -48.08, -8.18 -49.97, -4.53 -52.94 C-0.87 -55.91, 3.99 -61.23, 6.64 -62.97 C9.29 -64.72, 10.19 -63.4, 11.36 -63.4" stroke="black" stroke-width="4" fill="none"></path></g></g><g stroke-linecap="round"><g transform="translate(962.729022874679 699.5740750559725) rotate(0 38.596939560900864 -32.50592727820066)"><path d="M0.61 -0.07 C-0.65 -3.7, -5.73 -16.7, -6.81 -22.48 C-7.89 -28.25, -6.21 -31.52, -5.86 -34.73 C-5.51 -37.95, -6.64 -38.59, -4.72 -41.77 C-2.8 -44.95, 2.02 -50.62, 5.66 -53.8 C9.29 -56.99, 13.42 -59.24, 17.09 -60.88 C20.76 -62.52, 22.58 -63.12, 27.69 -63.64 C32.81 -64.16, 41.07 -64.67, 47.78 -64.01 C54.49 -63.34, 63.72 -61.1, 67.95 -59.65 C72.17 -58.21, 70.22 -59.76, 73.12 -55.32 C76.03 -50.89, 83.06 -36.87, 85.37 -33.03 M-0.52 -1.16 C-2.04 -4.51, -7.03 -15.52, -7.96 -20.88 C-8.89 -26.24, -6.61 -29.46, -6.11 -33.31 C-5.61 -37.16, -7.24 -40.68, -4.95 -43.97 C-2.66 -47.27, 3.72 -50.09, 7.62 -53.08 C11.51 -56.08, 15 -59.98, 18.4 -61.93 C21.79 -63.87, 23.3 -64.38, 28 -64.77 C32.7 -65.15, 40.19 -64.87, 46.57 -64.23 C52.95 -63.6, 61.74 -62.44, 66.27 -60.98 C70.79 -59.51, 70.58 -60.32, 73.72 -55.46 C76.85 -50.61, 83.05 -35.72, 85.07 -31.84" stroke="black" stroke-width="4" fill="none"></path></g></g><g stroke-linecap="round"><g transform="translate(1048.184596355278 665.0738351292092) rotate(0 36.81357559547905 8.983720300545599)"><path d="M-0.07 -0.37 C1.86 -1.47, 6.51 -4.26, 10.89 -5.97 C15.27 -7.68, 18.23 -10.51, 26.2 -10.63 C34.17 -10.76, 51.35 -8.8, 58.73 -6.72 C66.11 -4.65, 67.97 -3.69, 70.48 1.81 C72.99 7.32, 73.17 22.19, 73.79 26.32 M-1.57 -1.61 C0.27 -3.08, 5.48 -6.21, 10 -7.58 C14.52 -8.94, 17.32 -10.09, 25.54 -9.8 C33.76 -9.51, 52.03 -7.84, 59.33 -5.85 C66.63 -3.87, 66.69 -3.64, 69.34 2.1 C71.98 7.84, 74.24 24.17, 75.2 28.61" stroke="black" stroke-width="4" fill="none"></path></g></g><g stroke-linecap="round"><g transform="translate(1140.4858095458578 763.4379665443515) rotate(0 8.400715827744534 -38.815199834720715)"><path d="M-0.37 0.11 C2.58 -1.41, 13.59 -5.54, 18.35 -9.2 C23.12 -12.85, 25.88 -17.7, 28.24 -21.85 C30.6 -26, 31.78 -29.04, 32.54 -34.09 C33.29 -39.14, 33.82 -46.96, 32.78 -52.17 C31.75 -57.38, 29.28 -61.5, 26.32 -65.33 C23.37 -69.16, 18.86 -73.2, 15.07 -75.17 C11.28 -77.13, 7.81 -77.44, 3.6 -77.11 C-0.61 -76.79, -6.8 -74.42, -10.16 -73.22 C-13.52 -72.01, -15.77 -70.57, -16.56 -69.89 M1.63 -0.88 C4.46 -2.78, 13.09 -7.38, 17.92 -11.21 C22.76 -15.04, 28.21 -19.66, 30.65 -23.84 C33.09 -28.03, 32.46 -31.66, 32.55 -36.32 C32.64 -40.97, 32.07 -46.81, 31.21 -51.78 C30.35 -56.75, 30.01 -62.05, 27.4 -66.15 C24.79 -70.26, 19.67 -74.53, 15.53 -76.4 C11.39 -78.27, 6.55 -77.74, 2.57 -77.39 C-1.41 -77.04, -5.19 -75.5, -8.35 -74.29 C-11.51 -73.08, -15.41 -70.64, -16.42 -70.13" stroke="black" stroke-width="4" fill="none"></path></g></g><g transform="translate(982.1840042892097 697.7553862255511) rotate(0 27 17.5)"><text x="0" y="25" font-family="Virgil, Segoe UI Emoji" font-size="28px" fill="#000000" text-anchor="start" style="white-space: pre;" direction="ltr">API</text></g><g transform="translate(1036.1840042892097 700.7553862255511) rotate(0 51 12.5)"><text x="0" y="18" font-family="Virgil, Segoe UI Emoji" font-size="20px" fill="#000000" text-anchor="start" style="white-space: pre;" direction="ltr">.platzi.com</text></g><g stroke-linecap="round" transform="translate(1160.4287228142364 350.9828351505697) rotate(0 32.46427586595519 38.746239126789106)"><path d="M1.14 -0.71 L63.32 -1.61 L65.34 76.21 L0.61 77.68" stroke="none" stroke-width="0" fill="black"></path><path d="M1.94 0.48 C21.52 -0.31, 41.74 -0.47, 64.26 -0.59 M0.07 -1 C19.06 0.22, 39.31 -0.18, 64.54 0.22 M65.06 0.28 C63.68 22.6, 63.9 44.57, 64.86 77.47 M65.85 -0.34 C66.49 19.63, 66.26 36.75, 64.65 76.99 M66.81 77.77 C50.25 77.01, 31.91 78.27, -1.38 76.42 M65.56 78.02 C42.38 77.83, 18.15 77.87, 0.07 78.4 M-0.07 76.36 C-1.28 62.14, -0.4 42.4, -1.03 0.19 M-0.04 78.15 C-0.48 58.55, 0.8 40.4, -0.94 0.66" stroke="#000000" stroke-width="4" fill="none"></path></g><g stroke-linecap="round" transform="translate(1160.9726227519807 417.7025519510879) rotate(0 32.41917099416446 12.243797357806528)"><path d="M43.74 1.66 C50.01 2.36, 56.27 4.64, 59.73 6.77 C63.18 8.89, 65.66 11.98, 64.47 14.4 C63.27 16.81, 57.82 19.57, 52.55 21.25 C47.29 22.94, 39.88 24.55, 32.87 24.51 C25.86 24.48, 15.89 22.86, 10.5 21.06 C5.12 19.26, 1.65 16.19, 0.56 13.72 C-0.53 11.26, 0.48 8.31, 3.96 6.26 C7.44 4.2, 13.81 2.09, 21.46 1.37 C29.1 0.66, 44 1.4, 49.85 1.95 C55.71 2.51, 56.91 4.4, 56.59 4.7 M40.35 0.81 C46.73 1.64, 54.38 3.79, 58.46 5.92 C62.53 8.06, 65.18 11.08, 64.78 13.6 C64.38 16.12, 61.05 19.38, 56.05 21.05 C51.05 22.71, 42.04 23.29, 34.78 23.6 C27.53 23.91, 18.01 24.13, 12.51 22.91 C7.01 21.69, 3.55 19.15, 1.8 16.27 C0.05 13.39, -1.03 8.4, 2.03 5.64 C5.08 2.88, 13.71 0.54, 20.13 -0.31 C26.55 -1.16, 37.21 0.27, 40.57 0.54 C43.93 0.8, 40.18 1.17, 40.26 1.3" stroke="none" stroke-width="0" fill="black"></path><path d="M34.41 -0.3 C41.04 -0.2, 49.76 1.65, 54.77 3.51 C59.78 5.36, 63.75 8.4, 64.5 10.84 C65.25 13.28, 63.25 15.94, 59.27 18.15 C55.29 20.36, 47.31 23.3, 40.61 24.12 C33.92 24.95, 25.41 24.16, 19.11 23.1 C12.81 22.04, 5.87 20.18, 2.81 17.77 C-0.25 15.35, -1.09 11.19, 0.76 8.63 C2.61 6.06, 6.99 3.77, 13.9 2.36 C20.81 0.95, 36.36 0.29, 42.24 0.16 C48.11 0.04, 49.17 1.36, 49.15 1.61 M32.74 1.39 C39.39 1.26, 47.15 2.64, 52.61 4.27 C58.06 5.89, 64.38 8.87, 65.47 11.14 C66.57 13.41, 62.92 15.91, 59.16 17.88 C55.41 19.85, 49.11 21.98, 42.94 22.97 C36.77 23.96, 28.31 24.56, 22.13 23.84 C15.95 23.11, 9.27 20.97, 5.85 18.64 C2.43 16.3, 0.75 12.34, 1.61 9.81 C2.46 7.28, 6.05 5.24, 10.98 3.48 C15.91 1.71, 27.51 -0.45, 31.19 -0.81 C34.87 -1.16, 33.04 0.86, 33.08 1.36" stroke="#000000" stroke-width="4" fill="none"></path></g><g stroke-linecap="round" transform="translate(1160.790205509669 341.32062578440116) rotate(0 32.41917099416446 12.243797357806528)"><path d="M25.32 -0.48 C31.59 -1.23, 40.97 0.18, 47.07 1.36 C53.17 2.55, 59.24 4.17, 61.93 6.64 C64.62 9.11, 65.08 13.73, 63.21 16.19 C61.34 18.65, 56.46 20.03, 50.71 21.42 C44.95 22.81, 35.69 24.7, 28.67 24.52 C21.66 24.34, 13.36 22.22, 8.63 20.32 C3.9 18.42, 0.6 15.79, 0.28 13.11 C-0.03 10.44, 1.34 6.36, 6.76 4.25 C12.17 2.14, 26.96 1.18, 32.79 0.44 C38.62 -0.3, 41.61 -0.44, 41.74 -0.22 M27.03 -0.77 C33.73 -1.14, 43.05 0.09, 49.03 1.77 C55 3.44, 60.55 6.8, 62.86 9.3 C65.16 11.79, 65.35 14.58, 62.85 16.72 C60.34 18.86, 53.69 20.74, 47.82 22.15 C41.96 23.56, 34.17 25.75, 27.67 25.19 C21.16 24.63, 13.58 20.82, 8.77 18.79 C3.97 16.75, -0.74 15.54, -1.16 12.97 C-1.59 10.41, 1.55 5.72, 6.2 3.41 C10.86 1.09, 23.22 -0.49, 26.76 -0.92 C30.29 -1.35, 27.37 0.31, 27.4 0.84" stroke="none" stroke-width="0" fill="black"></path><path d="M26.21 -0.09 C32.69 -0.65, 42.37 0.06, 48.44 1.41 C54.5 2.77, 60.35 5.64, 62.61 8.04 C64.86 10.43, 64.25 13.3, 61.97 15.77 C59.69 18.24, 54.81 21.48, 48.94 22.84 C43.07 24.2, 33.57 24.41, 26.74 23.93 C19.91 23.44, 12.52 21.8, 7.96 19.94 C3.41 18.07, -0.51 15.29, -0.59 12.73 C-0.67 10.18, 2.12 6.6, 7.49 4.59 C12.86 2.57, 26.69 1.18, 31.63 0.64 C36.56 0.1, 37.05 1.26, 37.12 1.35 M24.73 -0.01 C31 -0.75, 40.62 1.3, 46.92 2.2 C53.23 3.1, 59.83 3.37, 62.59 5.4 C65.35 7.44, 65.45 11.52, 63.49 14.41 C61.53 17.3, 56.35 20.82, 50.83 22.74 C45.31 24.65, 37.13 25.96, 30.36 25.87 C23.59 25.79, 15.3 24.36, 10.21 22.24 C5.12 20.11, 0.51 16.09, -0.19 13.12 C-0.88 10.15, 2.24 6.37, 6.03 4.41 C9.82 2.44, 19.44 2.09, 22.54 1.33 C25.64 0.58, 24.2 -0.31, 24.64 -0.13" stroke="#000000" stroke-width="4" fill="none"></path></g><g stroke-linecap="round"><g transform="translate(1161.8234499715606 354.28351753646336) rotate(0 29.91290275365816 4.196074158479661)"><path d="M0.18 -0.44 C0.36 0.03, -2.99 1.54, 2.22 3.07 C7.43 4.6, 24.17 8.02, 31.44 8.72 C38.71 9.42, 40.78 8.73, 45.86 7.28 C50.94 5.83, 59.41 1.35, 61.92 0.01 M-1.18 -1.71 C-1.31 -1.12, -4.23 2.4, 1.05 4.33 C6.32 6.26, 22.95 9.2, 30.46 9.85 C37.98 10.51, 41.14 9.84, 46.12 8.27 C51.1 6.7, 57.73 1.58, 60.33 0.45" stroke="white" stroke-width="4" fill="none"></path></g></g><g stroke-linecap="round"><g transform="translate(1160.024720505831 377.89479369210665) rotate(0 32.98152061784515 5.256260287457678)"><path d="M-0.44 -0.42 C0.42 0.16, 0.38 1.92, 5.44 3.64 C10.5 5.37, 22.36 8.82, 29.93 9.92 C37.51 11.03, 44.81 11.45, 50.89 10.27 C56.96 9.1, 63.94 3.88, 66.4 2.87 M1.53 -1.68 C2.16 -0.95, -0.36 2.82, 4.22 4.97 C8.79 7.13, 21.18 10.21, 28.98 11.26 C36.78 12.3, 45.02 12.7, 51.02 11.26 C57.02 9.82, 62.36 3.97, 64.97 2.63" stroke="white" stroke-width="4" fill="none"></path></g></g><g stroke-linecap="round"><g transform="translate(1160.8667633883013 403.6916191243532) rotate(0 32.88638655162413 6.700601851794772)"><path d="M-0.42 -0.53 C-0.33 -0.16, -1.14 0.38, 0.68 1.8 C2.5 3.22, 6.11 6.18, 10.5 7.98 C14.89 9.79, 20.15 11.92, 27.01 12.61 C33.88 13.31, 45.32 13.26, 51.67 12.13 C58.02 11, 62.95 6.97, 65.11 5.83 M1.56 1.81 C1.44 2.39, -1.84 1.92, -0.48 3.15 C0.89 4.38, 5.14 7.42, 9.75 9.19 C14.35 10.96, 19.89 13.27, 27.14 13.76 C34.39 14.26, 46.66 13.65, 53.24 12.16 C59.81 10.67, 64.6 5.61, 66.58 4.82" stroke="white" stroke-width="4" fill="none"></path></g></g><g stroke-linecap="round"><g transform="translate(1014.1840042892097 619.2553862255511) rotate(0 59.81254327756892 -118.25826632379338)"><path d="M-0.23 -0.98 C-1.26 -36.28, -29.32 -174.37, -6.64 -212.75 C16.05 -251.13, 112.26 -228.13, 135.87 -231.24 M-1.81 1.12 C-2.88 -34.43, -29.94 -175.4, -7.13 -214.48 C15.67 -253.56, 111.39 -230.74, 135.04 -233.37" stroke="#000000" stroke-width="1" fill="none"></path></g><g transform="translate(1014.1840042892097 619.2553862255511) rotate(0 59.81254327756892 -118.25826632379338)"><path d="M-14.82 -26.61 C-8.78 -21.18, -5.98 -15.53, 0.12 -2.66 M-12.31 -27.89 C-8.23 -18.28, -4.92 -9.22, 0.11 -0.91" stroke="#000000" stroke-width="1" fill="none"></path></g><g transform="translate(1014.1840042892097 619.2553862255511) rotate(0 59.81254327756892 -118.25826632379338)"><path d="M5.6 -28.6 C6.31 -22.7, 3.79 -16.52, 0.12 -2.66 M8.11 -29.88 C4.8 -19.48, 0.75 -9.7, 0.11 -0.91" stroke="#000000" stroke-width="1" fill="none"></path></g><g transform="translate(1014.1840042892097 619.2553862255511) rotate(0 59.81254327756892 -118.25826632379338)"><path d="M104.66 -223.33 C115.11 -227.17, 122.03 -230.81, 135.39 -235.05 M107.17 -224.61 C117.16 -227.94, 126.18 -231.76, 135.38 -233.29" stroke="#000000" stroke-width="1" fill="none"></path></g><g transform="translate(1014.1840042892097 619.2553862255511) rotate(0 59.81254327756892 -118.25826632379338)"><path d="M105.85 -243.82 C115.82 -242.32, 122.43 -240.62, 135.39 -235.05 M108.36 -245.1 C117.8 -241.03, 126.39 -237.45, 135.38 -233.29" stroke="#000000" stroke-width="1" fill="none"></path></g></g><g transform="translate(1193.1840042892097 445.2553862255511) rotate(0 22 17.5)"><text x="0" y="25" font-family="Virgil, Segoe UI Emoji" font-size="28px" fill="#000000" text-anchor="start" style="white-space: pre;" direction="ltr">DB</text></g><g stroke-linecap="round" transform="translate(943.3123658395525 40.44082867008274) rotate(0 53.65909090909099 67.65711462450604)"><path d="M0 0 L107.32 0 L107.32 135.31 L0 135.31" stroke="none" stroke-width="0" fill="#0000"></path><path d="M0 0 C34.36 0, 68.72 0, 107.32 0 M0 0 C33.84 0, 67.68 0, 107.32 0 M107.32 0 C107.32 38.26, 107.32 76.53, 107.32 135.31 M107.32 0 C107.32 44.28, 107.32 88.55, 107.32 135.31 M107.32 135.31 C83.88 135.31, 60.44 135.31, 0 135.31 M107.32 135.31 C73.63 135.31, 39.94 135.31, 0 135.31 M0 135.31 C0 98.33, 0 61.35, 0 0 M0 135.31 C0 104.01, 0 72.7, 0 0" stroke="#0000" stroke-width="2" fill="none"></path></g><g stroke-linecap="round"><g transform="translate(948.4218760293675 125.28737912629163) rotate(0 49.610303522207005 10.444274425727748)" fill-rule="evenodd"><path d="M0 0 L0.29 20.6 L50.48 51.06 L97.48 23.21 L99.22 0 L48.74 -30.17 L0 0" stroke="none" stroke-width="0" fill="#ced4da" fill-rule="evenodd"></path><path d="M0 0 C0.1 7.26, 0.2 14.53, 0.29 20.6 M0 0 C0.08 5.45, 0.15 10.9, 0.29 20.6 M0.29 20.6 C11.81 27.59, 23.33 34.58, 50.48 51.06 M0.29 20.6 C19.16 32.05, 38.03 43.5, 50.48 51.06 M50.48 51.06 C67.16 41.18, 83.84 31.3, 97.48 23.21 M50.48 51.06 C63.97 43.07, 77.45 35.08, 97.48 23.21 M97.48 23.21 C98.04 15.7, 98.61 8.2, 99.22 0 M97.48 23.21 C97.85 18.33, 98.21 13.46, 99.22 0 M99.22 0 C88.52 -6.4, 77.81 -12.8, 48.74 -30.17 M99.22 0 C82.46 -10.02, 65.71 -20.03, 48.74 -30.17 M48.74 -30.17 C30.81 -19.07, 12.88 -7.97, 0 0 M48.74 -30.17 C37.76 -23.38, 26.78 -16.58, 0 0 M0 0 C0 0, 0 0, 0 0 M0 0 C0 0, 0 0, 0 0" stroke="#495057" stroke-width="2" fill="none"></path></g></g><g stroke-linecap="round"><g transform="translate(998.6124170196756 174.31744518040537) rotate(0 1.1368683772161603e-13 -9.864036957631782)"><path d="M0 0 C0 -5.03, 0 -10.06, 0 -19.73 M0 0 C0 -6.67, 0 -13.33, 0 -19.73" stroke="#495057" stroke-width="2" fill="none"></path></g></g><g stroke-linecap="round"><g transform="translate(949.0021134974659 125.86761659438753) rotate(0 48.594887953039006 14.215817968351658)"><path d="M0 0 C16.31 9.35, 32.62 18.69, 49.61 28.43 M0 0 C13.06 7.49, 26.13 14.97, 49.61 28.43 M49.61 28.43 C66.62 18.79, 83.63 9.14, 97.19 1.45 M49.61 28.43 C64.22 20.15, 78.83 11.86, 97.19 1.45" stroke="#495057" stroke-width="2" fill="none"></path></g></g><g stroke-linecap="round"><g transform="translate(1002.9641980303934 164.16328948872498) rotate(0 11.659239460422668 -6.527671516079849)"><path d="M0 0 C8.7 -4.87, 17.4 -9.74, 23.32 -13.06 M0 0 C8.01 -4.49, 16.02 -8.97, 23.32 -13.06" stroke="#495057" stroke-width="2" fill="none"></path></g></g><g stroke-linecap="round"><g transform="translate(1030.7162229675218 146.14937308939824) rotate(0 6.06423509675642 -0.83644622024228)" fill-rule="evenodd"><path d="M0 0 L0.14 5.3 L11.22 -1.9 L12.13 -6.97 L0 0" stroke="none" stroke-width="0" fill="#ced4da" fill-rule="evenodd"></path><path d="M0 0 C0.06 2.11, 0.11 4.22, 0.14 5.3 M0 0 C0.05 1.81, 0.1 3.62, 0.14 5.3 M0.14 5.3 C3.76 2.94, 7.39 0.59, 11.22 -1.9 M0.14 5.3 C3.29 3.25, 6.43 1.21, 11.22 -1.9 M11.22 -1.9 C11.56 -3.83, 11.91 -5.75, 12.13 -6.97 M11.22 -1.9 C11.45 -3.17, 11.67 -4.45, 12.13 -6.97 M12.13 -6.97 C9.3 -5.35, 6.48 -3.72, 0 0 M12.13 -6.97 C8.37 -4.81, 4.61 -2.65, 0 0 M0 0 C0 0, 0 0, 0 0 M0 0 C0 0, 0 0, 0 0" stroke="#495057" stroke-width="1" fill="none"></path></g></g><g stroke-linecap="round"><g transform="translate(948.2028067812171 97.93615203840926) rotate(0 49.610303522207005 10.444274425727741)" fill-rule="evenodd"><path d="M0 0 L0.29 20.6 L50.48 51.06 L97.48 23.21 L99.22 0 L48.74 -30.17 L0 0" stroke="none" stroke-width="0" fill="#ced4da" fill-rule="evenodd"></path><path d="M0 0 C0.1 7.45, 0.21 14.9, 0.29 20.6 M0 0 C0.08 5.74, 0.16 11.48, 0.29 20.6 M0.29 20.6 C11.8 27.58, 23.3 34.57, 50.48 51.06 M0.29 20.6 C14 28.92, 27.72 37.24, 50.48 51.06 M50.48 51.06 C67.79 40.81, 85.09 30.55, 97.48 23.21 M50.48 51.06 C65.52 42.15, 80.56 33.23, 97.48 23.21 M97.48 23.21 C97.92 17.37, 98.36 11.53, 99.22 0 M97.48 23.21 C97.9 17.6, 98.32 11.99, 99.22 0 M99.22 0 C88.42 -6.46, 77.62 -12.91, 48.74 -30.17 M99.22 0 C86.93 -7.35, 74.64 -14.69, 48.74 -30.17 M48.74 -30.17 C35.89 -22.22, 23.05 -14.27, 0 0 M48.74 -30.17 C34.1 -21.11, 19.47 -12.05, 0 0 M0 0 C0 0, 0 0, 0 0 M0 0 C0 0, 0 0, 0 0" stroke="#495057" stroke-width="2" fill="none"></path></g></g><g stroke-linecap="round"><g transform="translate(998.393347771507 146.96621809251815) rotate(0 1.1368683772161603e-13 -9.864036957631782)"><path d="M0 0 C0 -5.95, 0 -11.89, 0 -19.73 M0 0 C0 -5.48, 0 -10.96, 0 -19.73" stroke="#495057" stroke-width="2" fill="none"></path></g></g><g stroke-linecap="round"><g transform="translate(948.783044249305 98.51638950650448) rotate(0 48.594887953039006 14.215817968351658)"><path d="M0 0 C17.95 10.29, 35.9 20.57, 49.61 28.43 M0 0 C18.76 10.75, 37.51 21.5, 49.61 28.43 M49.61 28.43 C68.51 17.71, 87.41 7, 97.19 1.45 M49.61 28.43 C64.98 19.72, 80.34 11, 97.19 1.45" stroke="#495057" stroke-width="2" fill="none"></path></g></g><g stroke-linecap="round"><g transform="translate(1002.7451287822323 136.81206240084072) rotate(0 12.18498683001576 -6.527671516079835)"><path d="M0 0 C6.22 -3.33, 12.45 -6.67, 24.37 -13.06 M0 0 C8.1 -4.34, 16.21 -8.68, 24.37 -13.06" stroke="#495057" stroke-width="2" fill="none"></path></g></g><g stroke-linecap="round"><g transform="translate(1031.2857747737523 118.00952494712524) rotate(0 5.131033515728859 -0.5564857459338128)" fill-rule="evenodd"><path d="M0 0 L0.14 5.3 L10.03 -0.56 L10.26 -6.41 L0 0" stroke="none" stroke-width="0" fill="#ced4da" fill-rule="evenodd"></path><path d="M0 0 C0.03 1.1, 0.06 2.2, 0.14 5.3 M0 0 C0.05 1.74, 0.09 3.48, 0.14 5.3 M0.14 5.3 C2.34 3.99, 4.54 2.69, 10.03 -0.56 M0.14 5.3 C2.36 3.98, 4.59 2.66, 10.03 -0.56 M10.03 -0.56 C10.12 -2.8, 10.21 -5.05, 10.26 -6.41 M10.03 -0.56 C10.1 -2.42, 10.18 -4.28, 10.26 -6.41 M10.26 -6.41 C6.72 -4.2, 3.17 -1.98, 0 0 M10.26 -6.41 C7.07 -4.42, 3.88 -2.42, 0 0 M0 0 C0 0, 0 0, 0 0 M0 0 C0 0, 0 0, 0 0" stroke="#495057" stroke-width="1" fill="none"></path></g></g><g stroke-linecap="round"><g transform="translate(947.9837375330494 70.95820558293715) rotate(0 49.610303522207005 10.444274425727727)" fill-rule="evenodd"><path d="M0 0 L0.29 20.6 L50.48 51.06 L97.48 23.21 L99.22 0 L48.74 -30.17 L0 0" stroke="none" stroke-width="0" fill="#ced4da" fill-rule="evenodd"></path><path d="M0 0 C0.09 6.5, 0.18 12.99, 0.29 20.6 M0 0 C0.08 5.82, 0.16 11.65, 0.29 20.6 M0.29 20.6 C16.71 30.57, 33.14 40.53, 50.48 51.06 M0.29 20.6 C11.25 27.25, 22.22 33.91, 50.48 51.06 M50.48 51.06 C65.23 42.32, 79.99 33.57, 97.48 23.21 M50.48 51.06 C63.33 43.45, 76.17 35.84, 97.48 23.21 M97.48 23.21 C97.88 17.84, 98.29 12.47, 99.22 0 M97.48 23.21 C98.08 15.26, 98.67 7.31, 99.22 0 M99.22 0 C82.54 -9.97, 65.86 -19.94, 48.74 -30.17 M99.22 0 C84.97 -8.52, 70.72 -17.03, 48.74 -30.17 M48.74 -30.17 C31.95 -19.78, 15.16 -9.39, 0 0 M48.74 -30.17 C33 -20.43, 17.27 -10.69, 0 0 M0 0 C0 0, 0 0, 0 0 M0 0 C0 0, 0 0, 0 0" stroke="#495057" stroke-width="2" fill="none"></path></g></g><g stroke-linecap="round"><g transform="translate(998.1742785233594 119.9882716370447) rotate(0 1.1368683772161603e-13 -9.864036957631782)"><path d="M0 0 C0 -5.22, 0 -10.44, 0 -19.73 M0 0 C0 -4.53, 0 -9.05, 0 -19.73" stroke="#495057" stroke-width="2" fill="none"></path></g></g><g stroke-linecap="round"><g transform="translate(948.5639750011565 71.53844305103138) rotate(0 48.594887953039006 14.215817968351658)"><path d="M0 0 C16.77 9.61, 33.53 19.22, 49.61 28.43 M0 0 C12.94 7.41, 25.87 14.83, 49.61 28.43 M49.61 28.43 C62.59 21.07, 75.57 13.71, 97.19 1.45 M49.61 28.43 C64.86 19.79, 80.11 11.14, 97.19 1.45" stroke="#495057" stroke-width="2" fill="none"></path></g></g><g stroke-linecap="round"><g transform="translate(1002.5260595340781 109.83411594536528) rotate(0 12.18498683001576 -6.5276715160798275)"><path d="M0 0 C6.42 -3.44, 12.84 -6.88, 24.37 -13.06 M0 0 C8.71 -4.67, 17.42 -9.33, 24.37 -13.06" stroke="#495057" stroke-width="2" fill="none"></path></g></g><g stroke-linecap="round"><g transform="translate(1031.0667055255924 91.03157849165225) rotate(0 5.597634306242526 -0.4631655878311278)" fill-rule="evenodd"><path d="M0 0 L0.14 5.3 L10.59 -0.37 L11.2 -6.22 L0 0" stroke="none" stroke-width="0" fill="#ced4da" fill-rule="evenodd"></path><path d="M0 0 C0.05 1.82, 0.1 3.64, 0.14 5.3 M0 0 C0.05 2.07, 0.11 4.15, 0.14 5.3 M0.14 5.3 C3.29 3.59, 6.44 1.88, 10.59 -0.37 M0.14 5.3 C4.15 3.12, 8.15 0.95, 10.59 -0.37 M10.59 -0.37 C10.76 -2.07, 10.94 -3.77, 11.2 -6.22 M10.59 -0.37 C10.71 -1.55, 10.83 -2.73, 11.2 -6.22 M11.2 -6.22 C8.71 -4.84, 6.22 -3.46, 0 0 M11.2 -6.22 C7.61 -4.23, 4.02 -2.23, 0 0 M0 0 C0 0, 0 0, 0 0 M0 0 C0 0, 0 0, 0 0" stroke="#495057" stroke-width="1" fill="none"></path></g></g><g transform="translate(1072.7404091512458 112.3709100242499) rotate(0 32 25)"><text x="0" y="18" font-family="Virgil, Segoe UI Emoji" font-size="20px" fill="#000000" text-anchor="start" style="white-space: pre;" direction="ltr">Platzi</text><text x="0" y="43" font-family="Virgil, Segoe UI Emoji" font-size="20px" fill="#000000" text-anchor="start" style="white-space: pre;" direction="ltr">Server</text></g><g stroke-linecap="round"><g transform="translate(597.2990346617963 617.3414370366676) rotate(0 5.20993958236653 4.93195475877701)" fill-rule="evenodd"><path d="M-1.7 -0.24 L0.37 9.56 L11.25 8.56 L-0.99 -1.03" stroke="none" stroke-width="0" fill="#000000" fill-rule="evenodd"></path><path d="M-0.27 0.33 C-0.18 1.3, 0.2 4.14, 0.63 5.73 C1.06 7.32, 1.57 9.18, 2.33 9.85 C3.09 10.52, 3.87 9.72, 5.2 9.77 C6.53 9.82, 9.72 10.81, 10.31 10.16 C10.89 9.5, 9.68 7, 8.71 5.85 C7.74 4.7, 5.98 4.37, 4.48 3.24 C2.98 2.11, 0.44 -0.4, -0.3 -0.91 M1.79 -0.54 C1.75 0.07, -0.11 1.93, -0.08 3.9 C-0.04 5.87, 1.19 10.19, 2.01 11.26 C2.84 12.33, 3.24 10.47, 4.88 10.32 C6.52 10.18, 11.54 10.78, 11.88 10.4 C12.21 10.02, 8.55 9.42, 6.89 8.04 C5.23 6.67, 3.3 3.78, 1.91 2.15 C0.52 0.52, -0.9 -1.19, -1.48 -1.73" stroke="#000000" stroke-width="1" fill="none"></path></g></g><g stroke-linecap="round"><g transform="translate(597.2825728253634 617.3643616353031) rotate(0 -16.55075346762453 0.05755186138554791)"><path d="M0.33 0.46 C-5.12 0.65, -27.2 1.11, -32.78 0.86 M-0.95 -0.35 C-6.51 -0.47, -27.95 -0.82, -33.43 -0.82" stroke="#000000" stroke-width="1" fill="none"></path></g></g><g stroke-linecap="round"><g transform="translate(564.0227888285733 617.3646623667395) rotate(0 0.08596049062617794 32.99978488083946)"><path d="M0.46 0.56 C0.65 11.26, 1.11 54.1, 0.86 64.56 M-0.76 -0.19 C-0.63 10.7, 0.02 55.48, 0.36 66.19" stroke="#000000" stroke-width="1" fill="none"></path></g></g><g stroke-linecap="round"><g transform="translate(563.9628185885501 681.7344908720131) rotate(0 22.311395013544768 -0.11108184903861229)"><path d="M0.56 0.86 C8.04 0.6, 37.99 -0.74, 45.23 -1.08 M-0.61 0.26 C6.7 0.07, 36.55 0.02, 44.38 -0.11" stroke="#000000" stroke-width="1" fill="none"></path></g></g><g stroke-linecap="round"><g transform="translate(608.9555525985476 681.961898652415) rotate(0 0.03058667791589187 -27.57308477524583)"><path d="M0.86 0.18 C0.61 -9.13, -0.71 -46.2, -1.04 -55.33 M-0.15 -0.77 C-0.09 -10.02, 0.89 -45.56, 1.1 -54.34" stroke="#000000" stroke-width="1" fill="none"></path></g></g><g stroke-linecap="round"><g transform="translate(597.0003990708798 617.2689757028081) rotate(0 5.927963202843841 4.735322955947424)"><path d="M0.18 -1.08 C1.9 0.38, 8.97 7.52, 10.88 9.63 M-1.19 0.97 C0.85 2.46, 11.06 9.09, 13.04 10.55" stroke="#000000" stroke-width="1" fill="none"></path></g></g><g stroke-linecap="round"><g transform="translate(565.3325781276471 654.9243830740928) rotate(0 22.255324959273764 8.53248981096391)" fill-rule="evenodd"><path d="M1.93 -0.17 L45.99 0.51 L50.19 3.9 L48.94 17.38 L41.33 16.49 L-5.03 17.53 L-4.65 11.23 L-4.65 6.17 L-5.86 0.87 L0.79 -0.82" stroke="none" stroke-width="0" fill="#fff" fill-rule="evenodd"></path><path d="M-1.08 -1.04 C2.06 -1.12, 11.96 -0.35, 19.71 -0.28 C27.47 -0.22, 40.53 -0.98, 45.46 -0.65 C50.39 -0.33, 48.61 0.88, 49.3 1.66 C50 2.45, 49.52 2.34, 49.65 4.07 C49.79 5.79, 50.4 10.04, 50.1 12.04 C49.79 14.03, 48.84 15.17, 47.82 16.05 C46.8 16.93, 48.46 17.25, 43.99 17.31 C39.51 17.37, 28.47 16.5, 20.99 16.41 C13.51 16.31, 3.51 16.94, -0.91 16.76 C-5.33 16.58, -4.45 16.23, -5.54 15.32 C-6.62 14.42, -7.41 12.98, -7.44 11.34 C-7.46 9.7, -6.43 7.04, -5.69 5.49 C-4.96 3.94, -3.79 2.91, -3.04 2.03 C-2.29 1.15, -1.79 0.55, -1.18 0.21 M0.56 1.02 C3.97 1.11, 14.38 1.23, 21.8 1.1 C29.23 0.97, 40.42 0.53, 45.12 0.24 C49.82 -0.05, 48.91 -1.26, 50 -0.64 C51.1 -0.02, 51.43 2.02, 51.69 3.98 C51.94 5.94, 52.17 9.32, 51.54 11.1 C50.92 12.87, 48.81 13.66, 47.93 14.63 C47.05 15.6, 50.44 16.36, 46.27 16.94 C42.1 17.51, 30.69 18.25, 22.9 18.09 C15.12 17.93, 4.32 16.34, -0.45 15.98 C-5.23 15.62, -4.86 16.85, -5.75 15.93 C-6.65 15.02, -5.89 12.32, -5.81 10.48 C-5.73 8.64, -5.7 6.25, -5.25 4.89 C-4.81 3.53, -3.77 3.18, -3.14 2.32 C-2.51 1.47, -1.71 -0.06, -1.47 -0.24" stroke="#000000" stroke-width="1" fill="none"></path></g></g><g transform="translate(570.2360473577669 653.3512505892128) rotate(0 17.09566587013626 9.819411388218725)"><text x="0" y="14.638822776437493" font-family="Virgil, Segoe UI Emoji" font-size="12.522473466907359px" fill="#000000" text-anchor="start" style="white-space: pre;" direction="ltr">JSON</text></g><g stroke-linecap="round"><g transform="translate(568.7183929031876 628.6771117339933) rotate(0 12.110691090682053 -0.588027703840055)"><path d="M-1.18 -0.28 C3.23 -0.25, 20.97 -0.94, 25.41 -0.81 M0.39 -1.48 C4.82 -1.22, 20.76 0.33, 24.89 0.3" stroke="#000000" stroke-width="1" fill="none"></path></g></g><g stroke-linecap="round"><g transform="translate(568.7494381283823 633.2129844052499) rotate(0 16.540354678810388 0.10815913089328433)"><path d="M-0.28 0.81 C5.07 1.16, 25.64 1.04, 31.08 0.86 M1.77 0.2 C7.59 0.31, 28.35 -0.92, 33.37 -0.81" stroke="#000000" stroke-width="1" fill="none"></path></g></g><g stroke-linecap="round"><g transform="translate(568.7606316118663 637.8391471320065) rotate(0 16.265195653953413 -0.005013092877334202)"><path d="M0.81 -0.81 C6.47 -0.68, 27.62 0.5, 32.75 0.48 M-0.22 1.38 C5.46 1.17, 27.1 -1.15, 32.25 -1.39" stroke="#000000" stroke-width="1" fill="none"></path></g></g><g stroke-linecap="round"><g transform="translate(568.7631401683652 642.4694113356047) rotate(0 15.779149407006571 0.39520371471996896)"><path d="M-0.81 0.86 C4.63 0.67, 27.07 -0.16, 32.37 -0.3 M0.97 0.27 C6.32 0.19, 26.27 0.89, 31.67 1.09" stroke="#000000" stroke-width="1" fill="none"></path></g></g><g stroke-linecap="round"><g transform="translate(568.7246455236627 647.6423504132256) rotate(0 15.721646070399117 -0.2148891583085515)"><path d="M0.86 0.48 C5.99 0.46, 26.41 -0.86, 31.59 -0.91 M-0.15 -0.31 C4.73 -0.13, 25.26 -0.17, 30.49 0.15" stroke="#000000" stroke-width="1" fill="none"></path></g></g><g stroke-linecap="round"><g transform="translate(622.1840042892097 634.2553862255511) rotate(0 37.99801004355464 28.649542710030914)"><path d="M-1.05 0.34 C10.24 1.49, 55.27 -3.34, 68.08 6.09 C80.89 15.52, 74.4 48.39, 75.82 56.9 M0.6 -0.53 C12.23 0.86, 57.89 -2.32, 70.31 7.41 C82.73 17.14, 73.95 49.4, 75.12 57.83" stroke="#000000" stroke-width="1" fill="none"></path></g></g><g stroke-linecap="round"><g transform="translate(552.601733187055 632.7553862255511) rotate(0 -33.50895084541179 28.76412308246387)"><path d="M1.09 1.16 C-9.22 2.12, -49.81 -4.86, -61.03 4.7 C-72.25 14.27, -65.37 49.38, -66.23 58.53 M0.21 0.73 C-10.3 1.38, -50.64 -7.12, -61.75 2.69 C-72.87 12.5, -65.9 50.48, -66.5 59.6" stroke="#000000" stroke-width="1" fill="none"></path></g></g><g transform="translate(695.8712500607571 697.0355969565646) rotate(0 48 12.5)"><text x="0" y="18" font-family="Virgil, Segoe UI Emoji" font-size="20px" fill="#000000" text-anchor="start" style="white-space: pre;" direction="ltr">API Rest</text></g><g stroke-linecap="round"><g transform="translate(169.73410590461367 183.18680995139715) rotate(0 380.9202725481858 -67.2349608187156)"><path d="M-0.78 0.47 C13.08 -19.72, -44.16 -99.5, 83.28 -121.7 C210.72 -143.91, 650.61 -131.07, 763.84 -132.75 M1.01 -0.33 C14.65 -20.37, -45.06 -98.84, 82.03 -120.76 C209.13 -142.68, 650.11 -130.22, 763.57 -131.87" stroke="#000000" stroke-width="1" fill="none"></path></g><g transform="translate(169.73410590461367 183.18680995139715) rotate(0 380.9202725481858 -67.2349608187156)"><path d="M-6.34 -29.81 C-7.18 -18.16, -4.71 -11.02, -0.57 -0.69 M-7.08 -28.01 C-5.21 -20.11, -3.7 -12.15, 0.05 1.1" stroke="#000000" stroke-width="1" fill="none"></path></g><g transform="translate(169.73410590461367 183.18680995139715) rotate(0 380.9202725481858 -67.2349608187156)"><path d="M13.99 -27.02 C6.87 -16.37, 3.04 -10.09, -0.57 -0.69 M13.26 -25.22 C9.12 -18.29, 4.62 -11.16, 0.05 1.1" stroke="#000000" stroke-width="1" fill="none"></path></g><g transform="translate(169.73410590461367 183.18680995139715) rotate(0 380.9202725481858 -67.2349608187156)"><path d="M736.1 -122.73 C742.24 -123.14, 751.49 -128.21, 763.78 -133.03 M735.36 -120.92 C743.63 -124.51, 751.61 -128.19, 764.4 -131.23" stroke="#000000" stroke-width="1" fill="none"></path></g><g transform="translate(169.73410590461367 183.18680995139715) rotate(0 380.9202725481858 -67.2349608187156)"><path d="M736.22 -143.25 C742.22 -137.31, 751.44 -136.02, 763.78 -133.03 M735.48 -141.45 C743.75 -138.97, 751.7 -136.59, 764.4 -131.23" stroke="#000000" stroke-width="1" fill="none"></path></g></g><g stroke-opacity="0.9" fill-opacity="0.9" transform="translate(1035.6681556615995 843.3000259014558) rotate(0 67.5 17.5)"><text x="0" y="25" font-family="Virgil, Segoe UI Emoji" font-size="28px" fill="#000000" text-anchor="start" style="white-space: pre;" direction="ltr">BACKEND</text></g><g transform="translate(433.2796544681429 61.382666818216535) rotate(0 110.00000000000006 10)"><text x="0" y="14" font-family="Virgil, Segoe UI Emoji" font-size="16px" fill="#000000" text-anchor="start" style="white-space: pre;" direction="ltr">SSR (Server Side Rendering)</text></g></svg>